<svg width="80" height="80" viewBox="0 0 80 80" fill="none" xmlns="http://www.w3.org/2000/svg">
<path d="M38.2976 37.8699C36.9979 36.7703 36.9979 35.9706 33.3659 36.0039C32.015 36.2039 30.7545 36.8019 29.7454 37.7219C28.7363 38.6419 28.0245 39.8423 27.7011 41.1689C27.3998 42.1663 27.4072 43.2316 27.7224 44.2249C28.0376 45.2179 28.6459 46.0926 29.4672 46.7336C30.6163 47.3839 31.9285 47.6886 33.2465 47.6119C34.5646 47.5349 35.8323 47.0796 36.8979 46.3006C38.0323 45.6553 38.9156 44.6466 39.4056 43.4373C39.8953 42.2279 39.9629 40.8886 39.5972 39.6359C39.3149 38.9499 38.8689 38.3436 38.2976 37.8699ZM34.9653 43.5683C34.4579 43.9466 33.8529 44.1729 33.2214 44.2203C32.59 44.2673 31.9581 44.1336 31.3999 43.8346C30.5668 43.3016 30.7001 42.1686 31.0333 41.1689C31.3666 40.1693 32.2663 38.5699 33.3992 38.3699C33.9272 38.3059 34.4629 38.3693 34.9616 38.5549C35.4603 38.7403 35.9069 39.0426 36.2649 39.4363C36.5966 39.7239 36.8296 40.1086 36.9312 40.5359C37.3979 41.8353 36.2983 42.9016 35.0986 43.5683H34.9653Z" fill="#020202"/>
<path d="M18.5725 55.3309C17.2729 54.2312 17.2729 53.4315 13.6075 53.4649C12.2626 53.6709 11.0093 54.2715 10.0066 55.1912C9.00394 56.1109 8.29717 57.3079 7.976 58.6299C7.64487 59.6455 7.6369 60.7392 7.9532 61.7595C8.2695 62.7802 8.8945 63.6775 9.74207 64.3279C10.8912 64.9779 12.2034 65.2829 13.5213 65.2059C14.8393 65.1292 16.1072 64.6739 17.1729 63.8949C18.3071 63.2495 19.1905 62.2409 19.6803 61.0315C20.1701 59.8219 20.2377 58.4829 19.8721 57.2302C19.6095 56.4959 19.1619 55.8415 18.5725 55.3309ZM15.2403 61.0289C14.7327 61.4075 14.1278 61.6339 13.4963 61.6809C12.8648 61.7282 12.233 61.5945 11.6748 61.2955C10.8417 60.7625 10.975 59.6295 11.3082 58.6299C11.6414 57.6302 12.5078 56.0305 13.6741 55.8309C14.1969 55.7722 14.7261 55.8385 15.2183 56.0239C15.7106 56.2092 16.1521 56.5082 16.5065 56.8969C16.8471 57.1829 17.0915 57.5669 17.2063 57.9965C17.6728 59.2962 16.6731 60.3625 15.3735 61.0289H15.2403Z" fill="#020202"/>
<path d="M55.8935 37.4394C54.5275 36.273 54.5275 35.54 50.9285 35.54C49.5795 35.748 48.3232 36.354 47.3199 37.28C46.3169 38.206 45.6125 39.41 45.2972 40.738C44.9685 41.749 44.9622 42.837 45.2785 43.8517C45.5949 44.8664 46.2185 45.758 47.0632 46.403C48.2045 47.078 49.5212 47.3977 50.8449 47.3204C52.1685 47.2434 53.4392 46.773 54.4942 45.9697C55.6282 45.3247 56.5119 44.3157 57.0015 43.1064C57.4912 41.897 57.5589 40.5577 57.1932 39.3054C56.9312 38.58 56.4829 37.9367 55.8935 37.4394ZM52.5615 43.1374C52.0539 43.516 51.4489 43.742 50.8175 43.7894C50.1859 43.8367 49.5542 43.703 48.9959 43.404C48.1629 42.8707 48.2962 41.7044 48.6295 40.7047C48.9625 39.705 49.8289 38.1057 50.9952 37.939C51.7589 37.8137 52.5422 37.958 53.2112 38.347C53.8799 38.7364 54.3925 39.346 54.6609 40.0717C54.9939 41.4047 53.8942 42.4377 52.6949 43.1374H52.5615Z" fill="#020202"/>
<path d="M36.1659 54.9006C34.8666 53.801 34.8666 53.001 31.201 53.001C29.8415 53.1826 28.5711 53.7793 27.5633 54.7096C26.5555 55.64 25.8592 56.8586 25.5695 58.1993C25.2359 59.21 25.2268 60.2993 25.5436 61.3153C25.8603 62.331 26.4869 63.2223 27.3356 63.8643C28.48 64.5346 29.7985 64.8486 31.1223 64.7653C32.446 64.6823 33.7149 64.206 34.7666 63.3976C35.9006 62.7526 36.7839 61.7436 37.2739 60.5343C37.7636 59.325 37.8313 57.9856 37.4656 56.7333C37.1983 56.02 36.7506 55.3886 36.1659 54.9006ZM32.8338 60.5986C32.3262 60.9773 31.7213 61.2033 31.0898 61.2506C30.4584 61.2976 29.8265 61.164 29.2683 60.8653C28.4019 60.332 28.5685 59.1656 28.9018 58.166C29.235 57.1663 30.1014 55.567 31.2676 55.4003C31.7877 55.3376 32.3152 55.3986 32.8073 55.5783C33.2995 55.7576 33.7423 56.0506 34.0999 56.4333C34.4406 56.7193 34.6849 57.1033 34.7999 57.533C35.2329 58.866 34.1666 60.0653 32.9671 60.5986H32.8338Z" fill="#020202"/>
<path d="M70.9836 37.7714C69.6839 36.6387 69.6506 35.8721 66.0186 35.8721C64.6589 36.0537 63.3886 36.6504 62.3806 37.5807C61.3729 38.5111 60.6766 39.7297 60.3869 41.0704C60.0533 42.0811 60.0443 43.1704 60.3609 44.1864C60.6776 45.2021 61.3043 46.0934 62.1529 46.7354C63.2943 47.4104 64.6109 47.7301 65.9346 47.6527C67.2583 47.5757 68.5289 47.1054 69.5839 46.3021C70.7179 45.6571 71.6016 44.6481 72.0913 43.4387C72.5809 42.2294 72.6486 40.8901 72.2829 39.6377C72.0209 38.9124 71.5726 38.2691 70.9836 37.7714ZM67.6513 43.4697C67.1436 43.8484 66.5386 44.0744 65.9073 44.1217C65.2759 44.1687 64.6439 44.0351 64.0856 43.7364C63.2193 43.2031 63.3859 42.0367 63.7193 41.0371C64.0523 40.0374 64.9189 38.4381 66.0849 38.2714C66.8279 38.1784 67.5803 38.3384 68.2209 38.7254C68.8616 39.1121 69.3536 39.7034 69.6173 40.4041C69.9839 41.7371 68.9843 42.7701 67.7846 43.4031L67.6513 43.4697Z" fill="#020202"/>
<path d="M48.4962 53.3998C47.1512 53.6058 45.8979 54.2068 44.8952 55.1261C43.8925 56.0458 43.1859 57.2428 42.8649 58.5648C42.5335 59.5805 42.5255 60.6741 42.8419 61.6945C43.1582 62.7151 43.7832 63.6125 44.6309 64.2628C45.7822 64.9048 47.0932 65.2051 48.4092 65.1285C49.7255 65.0518 50.9925 64.6011 52.0615 63.8298C53.1959 63.1845 54.0792 62.1758 54.5689 60.9665C55.0589 59.7571 55.1265 58.4178 54.7609 57.1651C54.2419 55.9608 53.3585 54.9498 52.2345 54.2741C51.1105 53.5988 49.8032 53.2928 48.4962 53.3998ZM50.2622 60.9641C49.7545 61.3425 49.1499 61.5688 48.5182 61.6161C47.8869 61.6631 47.2549 61.5295 46.6969 61.2305C45.8639 60.6975 45.9969 59.5645 46.3302 58.5315C46.6635 57.4985 47.5632 55.9658 48.6962 55.7658C49.2162 55.7031 49.7435 55.7641 50.2359 55.9435C50.7279 56.1231 51.1709 56.4161 51.5285 56.7988C51.8629 57.0901 52.1059 57.4721 52.2282 57.8985C52.5615 59.1311 51.4619 60.0645 50.2622 60.8641V60.9641Z" fill="#020202"/>
<path d="M52.527 12.9818C52.1506 15.5083 52.4256 18.0891 53.3266 20.4793C53.929 21.6513 54.939 22.5625 56.1666 23.0412C57.394 23.52 58.7543 23.5332 59.991 23.0785C60.8323 22.8747 61.609 22.4627 62.2493 21.8804C62.89 21.2982 63.3736 20.5643 63.6566 19.7462C64.2013 17.8763 64.4046 15.9235 64.2563 13.9815V9.11641C64.306 8.37861 64.1946 7.63884 63.93 6.94834C63.6653 6.25787 63.2536 5.63321 62.7236 5.11774C60.947 3.91264 58.7803 3.42454 56.659 3.75154C56.516 3.74707 56.3736 3.77134 56.2406 3.82294C56.1073 3.87451 55.9856 3.95234 55.8833 4.05181C55.7806 4.15127 55.699 4.27034 55.6433 4.40194C55.5876 4.53354 55.559 4.67497 55.5593 4.81784C55.4773 4.61237 55.3253 4.44261 55.13 4.33887C54.9346 4.23511 54.709 4.20411 54.493 4.25137C54.275 4.31237 54.0756 4.42651 53.913 4.58354C53.75 4.74057 53.6286 4.93557 53.56 5.15107C53.3613 6.31734 53.283 7.50097 53.3266 8.68324L52.86 10.7159C52.6863 11.4606 52.575 12.2186 52.527 12.9818ZM55.2926 11.6156C55.2926 11.6156 55.8256 5.41764 55.8256 5.18437C55.9096 5.38047 56.049 5.54787 56.2266 5.66621C56.404 5.78454 56.612 5.84867 56.8253 5.85084C59.8243 5.85084 61.0906 6.41731 61.424 7.58361C61.532 9.70374 61.3866 11.8292 60.9906 13.9148C60.9996 15.2049 60.8543 16.4914 60.5576 17.7469C60.3243 18.5466 60.0243 19.3464 59.1913 19.5463C58.8663 19.6936 58.5123 19.7664 58.1553 19.7596C57.7986 19.7527 57.4476 19.6664 57.1283 19.5067C56.8093 19.3471 56.5296 19.1183 56.31 18.8369C56.0903 18.5555 55.9363 18.2286 55.859 17.8802C55.3293 15.8369 55.138 13.7207 55.2926 11.6156Z" fill="#020202"/>
<path d="M28.4973 11.9444C28.4973 12.2777 28.7306 12.6109 30.0301 12.7442C31.8962 12.7442 32.6959 13.344 35.2618 13.4773H43.6258C45.9248 13.4773 47.3244 13.2773 49.6571 13.1107C50.7568 13.1107 51.6231 10.9781 50.1568 10.6116C47.6244 10.5116 45.8914 10.0784 43.3258 10.0784H36.6614C34.6008 10.0716 32.5418 10.194 30.4967 10.4449C29.0971 10.5449 28.464 11.4446 28.4973 11.9444Z" fill="#020202"/>
<path d="M76.6507 13.6458C75.5263 12.4225 74.046 11.5832 72.4187 11.2466C70.8767 10.8387 69.279 10.6812 67.687 10.7801C65.321 11.1133 65.9543 12.7461 67.187 12.7461C68.3037 12.7349 69.419 12.8241 70.5193 13.0127C72.1817 13.1313 73.739 13.8684 74.8847 15.0786C75.661 16.6361 76.1037 18.3385 76.184 20.077C76.5173 22.6761 76.784 26.0417 76.9507 29.7404C72.0523 29.7404 62.222 29.3406 51.1923 29.1406H28.5999C16.6705 29.2406 6.3073 29.6405 3.04171 29.7738C3.02056 24.7463 3.5344 19.7308 4.57453 14.8121C4.90233 14.2103 5.38297 13.7055 5.96797 13.3487C6.55297 12.9918 7.2217 12.7955 7.90677 12.7794C9.29073 12.4426 10.7161 12.308 12.1387 12.3795C12.3271 12.3471 12.5002 12.2556 12.633 12.1181C12.7659 11.9807 12.8515 11.8046 12.8775 11.6152C12.9034 11.4258 12.8685 11.2331 12.7776 11.065C12.6867 10.8969 12.5446 10.7621 12.372 10.6801C10.3077 10.2329 8.17163 10.2329 6.10737 10.6801C5.2897 10.8768 4.52807 11.2585 3.88107 11.7957C3.23405 12.333 2.71891 13.0115 2.37526 13.7791C1.07569 16.8447 -0.257197 33.7723 0.0427036 48.7673C0.27596 59.664 1.57553 69.4273 3.97473 72.3597C5.7408 74.4923 10.3393 75.692 16.1374 76.1583C25.1677 76.7583 37.1637 75.7587 43.3617 75.7587C51.1453 76.005 58.9367 75.749 66.6873 74.992C70.1813 74.6887 73.5797 73.6917 76.684 72.0597C77.588 71.2933 78.1903 70.2303 78.3833 69.0607C79.57 62.218 80.1053 55.278 79.983 48.3343C79.983 33.406 78.75 16.1116 76.6507 13.6458ZM75.8177 65.162C75.632 66.6243 75.2623 68.0573 74.718 69.4273C70.989 70.988 66.997 71.825 62.9553 71.893C55.1577 72.5263 46.5607 72.2263 43.3617 72.2263C37.2303 72.2263 25.3343 73.2593 16.3706 72.7263C11.7721 72.4597 7.9734 71.993 6.57387 70.327C4.30797 67.6947 3.3416 58.731 3.04171 48.834C2.82018 43.1387 2.79795 37.437 2.97507 31.7398C6.3073 31.7398 16.4706 32.2729 28.5999 32.5062H51.1923C62.2887 32.3063 72.152 32.0064 77.0173 31.8731C77.0173 35.2053 77.1837 38.9707 77.0173 42.6363C77.084 50.1623 76.6833 57.6853 75.8177 65.162Z" fill="#020202"/>
<path d="M14.9394 12.8785C14.683 15.5468 14.9432 18.2394 15.7058 20.8092C16.3081 21.9811 17.3182 22.8923 18.5457 23.3711C19.7733 23.8499 21.1336 23.8631 22.3703 23.4083C23.2189 23.2124 24.0037 22.8038 24.6508 22.2208C25.2979 21.6378 25.786 20.8998 26.0691 20.0761C26.6358 18.1877 26.8394 16.2089 26.6689 14.2447V9.37965C26.7142 8.64229 26.6008 7.90375 26.3364 7.21395C26.072 6.52415 25.6626 5.89909 25.136 5.38095C23.3656 4.16112 21.1973 3.66075 19.0714 3.98142C18.7797 3.98142 18.5 4.09729 18.2938 4.30352C18.0876 4.50972 17.9717 4.78942 17.9717 5.08105C17.89 4.87559 17.7379 4.70585 17.5426 4.60209C17.3473 4.49832 17.1215 4.46732 16.9054 4.51459C16.6876 4.57559 16.4883 4.68972 16.3254 4.84675C16.1626 5.00379 16.0413 5.19879 15.9724 5.41429C15.7222 6.50872 15.5772 7.62452 15.5392 8.74652L15.1727 10.5126V11.379L14.9394 12.8785ZM17.6718 11.9121C17.6718 11.9121 18.205 5.74752 18.205 5.48092C18.28 5.68585 18.4161 5.86282 18.5948 5.98795C18.7736 6.11309 18.9865 6.18035 19.2047 6.18069C22.2037 6.18069 23.4699 6.74719 23.8031 7.91345C23.9004 10.0349 23.7438 12.1604 23.3366 14.2447C23.3396 15.5344 23.1942 16.8202 22.9034 18.0768C22.7035 18.8432 22.4036 19.6429 21.5706 19.8429C21.2454 19.9901 20.8915 20.063 20.5346 20.0562C20.1778 20.0493 19.8269 19.9629 19.5077 19.8033C19.1884 19.6437 18.9088 19.4148 18.6892 19.1334C18.4696 18.8521 18.3156 18.5252 18.2383 18.1767C17.7026 16.1345 17.5112 14.0173 17.6718 11.9121Z" fill="#020202"/>
</svg>
