<svg width="157" height="152" viewBox="0 0 157 152" fill="none" xmlns="http://www.w3.org/2000/svg">
<path d="M11.5804 56.9882C13.8952 56.3321 17.0258 56.1441 19.426 56.1467C20.1718 56.1476 19.9266 56.8341 20.4438 56.8616C21.4914 56.9062 22.3094 56.425 23.3428 56.5016C23.6846 56.53 23.4936 57.5889 23.8484 57.5959C25.7521 57.6344 27.4624 56.9711 29.3047 56.7071C38.6162 55.3346 46.4745 52.5295 53.5759 46.8005C53.8981 46.5499 54.2438 46.2928 54.6011 46.0338C56.5338 44.7222 58.7841 42.9641 59.7475 40.6446C59.8758 40.3353 59.0216 40.0636 58.9912 39.9735C58.5079 38.6023 59.8844 39.7451 60.4029 39.2781C62.4602 37.3993 63.6834 34.4149 64.3608 31.5124C64.6573 30.2615 62.5869 30.8843 63.9469 29.9897C64.0401 29.9261 64.798 30.5557 65.0139 30.252C65.4949 29.5732 65.9052 28.0195 66.2425 27.4034C66.8913 26.2317 66.9637 26.0292 67.5784 24.8162C68.1039 23.818 68.92 22.743 69.8908 21.6561C70.2994 21.234 70.6723 20.7691 70.9336 20.2516C71.0697 19.9736 70.0623 19.7574 70.2005 19.2733C70.3399 18.7953 71.1 17.7613 71.5226 17.49C71.9462 17.2248 72.4879 17.7718 72.676 17.792C74.2692 17.9595 73.3351 15.544 73.3856 15.3442C74.482 11.622 77.0587 8.92142 79.256 5.46826C79.4438 5.17317 79.6316 4.87548 79.8228 4.57287C80.1479 4.06281 80.468 3.50136 81.0454 2.71561C81.3827 2.304 81.603 1.87615 82.7199 1.03516C83.2942 0.703797 84.3714 -0.283168 86.956 0.078897C88.1841 0.2961 89.2217 0.991213 89.7819 1.5562C90.3737 2.14744 90.6314 2.59129 90.8479 2.97913C91.6396 4.30091 92.3533 5.64807 92.8885 6.96597C94.2188 10.2678 94.61 13.2183 95.6164 16.2512C95.7212 16.5723 96.6786 15.8722 96.8089 16.2647C98.1805 20.4395 99.1622 24.2892 99.9284 28.273C100.005 28.6759 98.9002 28.5514 98.9247 28.9801C98.9478 29.3284 98.9626 29.7037 98.9879 30.1037C98.9882 32.4657 99.9866 35.7885 103.63 34.3918C104.365 35.644 105.446 37.0499 105.896 38.6155C106.199 39.6306 104.824 39.8482 105.992 40.2533C106.255 40.3415 106.604 39.4128 106.945 39.5914C108.374 40.3359 109.63 41.5989 111.264 42.0545C111.594 42.1432 111.963 41.3838 112.12 41.3038C113.396 40.6605 113.487 43.0481 113.685 43.3256C114.454 44.4519 115.348 45.0828 116.307 45.5939C117.182 46.06 118.073 46.4695 118.983 47.0292C119.454 47.3206 119.474 46.0159 119.952 46.2657C122.427 47.5839 124.658 49.2712 126.43 51.1471C126.823 51.5669 125.844 52.0482 126.003 52.2885C126.706 53.3365 127.97 52.0127 128.65 52.976C128.794 53.1769 128.211 53.7712 128.194 53.8696C127.923 55.4149 129.553 54.1048 129.715 54.1634C131.805 54.8766 131.756 57.3716 133.643 58.1431C133.863 58.228 133.935 57.068 134.518 57.3561C135.171 57.6744 135.817 57.9831 136.453 58.2725C139.938 59.8791 143.513 61.6163 146.964 63.6587C147.607 64.0406 146.837 64.5833 146.847 64.6899C147.017 66.3652 148.199 64.6597 148.456 64.6778C150.161 64.8388 151.172 66.4932 152.832 66.0381C153.274 66.03 153.675 65.9328 154.306 65.9199C154.6 66.1374 154.867 66.3522 155.217 66.7177C155.624 67.1691 155.983 67.5715 156.362 68.5553C156.714 69.481 156.732 70.6959 156.427 71.6074C156.122 72.5304 155.759 72.9897 155.401 73.4145C154.109 74.7436 153.504 74.8449 152.826 75.2089C151.563 75.7786 150.539 76.1077 149.51 76.4552C147.468 77.1271 145.562 77.7122 143.67 78.2829C139.935 79.4305 136.112 80.3607 133.041 81.1621C133.039 81.1628 133.036 81.1626 133.033 81.1615C132.924 81.1416 132.5 80.2948 132.323 80.3694C130.119 81.3311 131.408 82.3131 131.514 84.6882C131.556 85.2733 129.187 84.3427 128.988 84.3029C128.29 84.1109 127.575 82.7589 127.4 82.7593C125.954 82.8354 129.454 86.2403 128.492 87.2037C128.455 87.2291 127.945 86.4661 127.799 86.4866C127.341 86.5504 127.343 87.0609 126.871 87.1071C125.79 87.2065 123.818 85.8338 123.977 87.7316C124.004 87.9736 126.233 89.6249 125.319 90.4823C124.947 90.8198 123.576 92.5645 123.055 92.9522C122.529 93.3337 122.088 92.4476 122.031 92.4582C120.05 93.0917 120.058 92.2833 118.128 91.9403C116.196 91.6207 119.688 93.8878 119.857 94.4423C120.022 94.9966 118.5 95.4544 118.041 95.5232C117.585 95.5857 117.342 94.9409 117.025 95.0605C114.93 95.8939 118.264 96.8982 118.471 97.7658C118.538 98.038 118.541 98.2581 118.494 98.4379C118.168 99.6461 115.656 99.1795 114.803 99.9994C114.538 100.255 115.285 100.395 115.164 100.698C114.681 101.892 113.458 102.007 113.42 103.693C113.412 103.971 114.348 105.941 112.801 105.844C112.578 105.829 112.092 105.161 111.659 105.524C111.01 106.065 110.097 107.208 109.862 108.079C109.689 108.722 111.149 108.763 110.395 109.239C110.06 109.451 109.774 108.5 109.195 108.933C108.617 109.362 107.764 110.842 107.457 111.415C107.149 111.986 108.156 112.168 108.185 112.246C108.342 112.706 108.122 114.004 108.067 114.097C107.538 115.059 106.967 115.974 106.377 116.866C103.916 120.609 100.874 123.62 99.0461 127.551C98.8661 127.935 99.8803 128.208 99.8618 128.272C99.4976 129.725 97.7548 127.381 96.4635 127.805C98.312 128.712 97.6876 129.04 97.3805 130.033C97.2344 130.513 98.0579 130.673 98.1065 130.752C98.8045 131.969 97.2036 131.642 96.8605 131.602C95.6002 131.455 96.5682 132.578 95.7242 132.491C94.8829 132.412 94.2249 131.195 93.7725 132.072C94.2937 132.658 96.3261 132.926 96.2588 133.718C95.9917 136.633 92.63 140.523 91.7053 142.604C91.694 142.629 91.6829 142.653 91.6721 142.677C90.6458 144.886 90.3647 145.645 89.4151 146.767C87.556 148.733 89.3993 148.646 88.4343 150.678C87.7736 151.769 86.6917 151.49 86.2868 150.703C85.8423 149.932 85.4669 148.925 85.1924 148.645C85.08 148.518 85.0095 148.45 84.9631 148.418C84.744 148.326 84.713 148.77 84.43 148.522C84.1002 148.192 84.3509 147.578 83.8806 147.558C83.6329 147.545 83.3759 147.912 82.9805 148.311C82.6189 148.723 82.0251 149.088 81.746 149.391C81.1639 150.045 80.8365 150.832 80.4706 151.286C80.136 151.727 79.3703 151.779 78.5151 150.46C78.4418 150.325 79.4315 150.045 79.137 149.578C77.2956 145.855 77.5979 143.008 77.9125 140.053C77.9782 139.66 79.0217 139.949 79.0721 139.723C79.6252 137.365 77.9386 138.263 75.988 136.983C78.551 137.234 80.0935 136.5 80.1119 134.736C80.1258 133.673 79.0093 133.847 78.228 133.145C77.9925 132.934 78.7677 132.182 78.2444 132.038C76.5334 131.563 74.6028 132.252 75.3911 130.421C75.4285 130.341 76.3649 130.61 76.4253 130.331C76.817 128.541 75.0298 128.294 74.8049 126.409C74.6292 124.933 75.6504 122.333 75.5794 120.803C77.4036 120.569 77.6901 119.815 77.0834 119.351C76.7363 119.062 76.1199 118.864 75.3734 118.85C75.1673 117.823 74.6953 116.817 74.5556 115.793C74.5055 115.439 75.3582 115.316 75.4238 115.24C76.4306 114.018 74.4644 114.396 74.3025 114.242C72.5735 112.447 72.5621 109.932 69.9021 109.036C69.8033 109.003 68.2351 110.236 68.899 108.799C68.9425 108.699 70.1514 108.672 69.4399 107.795C68.7439 106.928 67.9013 104.612 66.0694 104.233C65.626 104.135 63.8367 104.723 64.054 103.25C64.0848 103.051 64.5428 102.688 64.6315 102.346C64.9027 101.247 63.4005 102.622 64.0434 100.929C64.675 99.2277 64.515 97.4387 62.4648 97.3256C62.402 97.3198 61.1005 98.3297 60.7043 97.9863C60.0802 97.4425 59.3468 96.449 58.6514 95.9232C58.3202 95.6735 57.9215 96.6212 57.8534 96.5914C56.5747 95.9508 55.6916 95.1685 54.8375 94.2579C53.9728 93.3369 53.1788 92.3242 52.0988 91.2626C51.6965 90.8659 49.6192 90.9959 49.4192 89.5119C49.1667 87.8641 53.0606 84.6757 50.1732 83.9896C49.0094 83.7113 44.2625 87.9043 44.5558 84.168C41.0235 82.6039 39.0802 79.2713 35.3515 77.9982C35.1909 77.9448 33.7314 79.0213 33.4241 78.7677C32.9543 78.3771 33.1771 77.5374 32.8656 77.2377C31.5918 75.9764 29.8751 75.4942 28.6633 74.2079C28.2097 73.7199 28.9552 73.2855 28.4497 72.7074C28.2438 72.4684 27.928 72.39 27.6038 72.2952C27.602 72.293 27.5954 72.2878 27.593 72.2861C27.1159 72.2805 26.6148 72.258 26.2578 71.6622C25.8046 70.8946 26.3426 68.5736 25.5919 67.7843C24.367 69.631 23.7785 69.2006 22.3763 69.0027C22.1071 68.9662 21.9172 69.759 21.7686 69.7754C21.1547 69.8564 21.1235 69.0802 20.5099 69.2044C20.3612 69.2335 19.9529 69.8704 19.809 69.9305C18.572 70.4669 18.4136 68.3611 18.3849 67.9948C18.2753 66.6015 17.4271 67.2346 17.118 66.525C16.8077 65.8154 17.908 65.8394 17.4137 65.2218C16.3853 63.9407 14.6099 63.0244 13.2594 62.2121C12.7181 61.892 12.5901 62.9822 12.501 62.9567C11.2595 62.5419 10.6178 60.9666 9.03898 62.4046C10.6891 57.3939 8.11969 62.4757 6.97775 60.7341C6.88945 60.5963 7.8082 58.3052 8.4826 58.2387C9.16327 58.1761 9.57659 59.2534 10.5391 59.1286C10.7617 59.0957 12.8144 57.5855 13.0165 57.5387C14.5749 57.1509 12.9177 60.4412 12.8699 60.6449C12.3935 62.8748 14.7414 61.3628 15.1314 61.393C16.8881 61.5085 17.7676 62.643 19.177 62.8475C20.0972 62.9863 21.434 60.9825 21.9724 61.4027C23.7613 62.8023 22.6147 66.0539 25.9432 64.7181C26.6544 64.4346 27.6958 61.9774 27.9349 64.5839C27.9506 64.7485 27.9332 66.983 29.1514 66.339C29.3046 66.2576 29.7142 65.6092 29.8435 65.6151C30.5509 65.6587 30.7429 66.1988 31.255 66.4902C31.5702 66.7134 32.4376 67.3895 32.6817 67.6889C32.7489 67.7543 32.8333 67.8113 32.944 67.8535C33.5707 68.0951 34.3826 68.2748 34.7689 68.9604C34.9927 69.3667 34.5562 70.8614 34.5291 71.2893C34.4342 72.5119 36.0465 71.6678 35.6645 72.9088C35.2938 74.1648 33.4323 75.0979 33.9559 76.479C35.183 74.9084 36.4815 73.3252 37.7282 71.7549C39.7607 73.3405 41.6479 75.4293 43.9753 76.9664C44.2693 77.158 44.5927 76.0752 44.9261 76.2598C46.3097 77.0286 46.9881 78.4475 48.4982 79.1588C49.6753 79.7103 51.4639 79.6074 52.7174 80.1734C52.0225 82.4906 54.0774 83.0479 55.0945 84.0734C55.4607 84.4386 55.0624 84.9012 55.2252 85.2725C55.8518 86.6664 56.5681 84.6829 57.0562 84.6545C59.1332 84.533 56.4889 88.2509 58.0195 89.2874C58.0523 89.3104 58.4689 89.1321 58.9724 88.9126C59.7121 88.582 60.6301 88.1501 60.7622 88.138C62.1834 87.9889 60.3756 88.9085 60.7853 89.4522C61.5294 90.4425 61.8223 91.402 63.3792 91.7111C63.8268 91.7921 65.5505 91.215 65.4616 92.6374C65.4507 92.8242 64.9068 93.4186 64.945 93.5087C65.6655 95.0782 67.2746 93.1351 68.5186 93.0384C69.7658 92.9441 69.755 95.1975 69.6556 95.7717C69.4005 97.2539 68.8512 95.822 68.7435 95.9004C67.4113 96.768 68.3642 97.2148 68.8728 97.8159C67.3585 99.7756 68.2665 100.361 69.4114 98.4385C69.5358 98.2273 68.9174 98.0013 68.8728 97.8159C70.9653 96.4059 72.1468 97.0098 71.6321 99.6169C71.3764 100.833 70.1046 101.32 71.7934 102.313C72.5577 102.777 73.5171 101.327 74.4176 101.579C76.4963 102.177 76.9674 105.138 78.3118 106.615C78.8121 107.166 79.1592 106.037 79.5319 106.406C80.5321 107.412 80.5772 108.827 81.5468 109.893C81.6367 109.992 82.3529 109.253 82.5729 109.649C83.9734 112.165 84.4528 114.735 84.9617 117.385C85.1002 118.063 85.2106 118.765 85.2989 119.368C85.5882 121.212 86.2345 123.918 86.1437 125.416C86.0036 128.029 84.518 130.977 84.8458 132.989C85.0546 134.298 86.0351 134.016 86.6979 134.568C87.98 135.629 85.6941 137.427 85.3467 137.689C85.3336 137.697 85.0835 136.64 84.5925 137.216C83.5542 137.568 85.342 137.68 85.3467 137.689C85.1121 137.866 84.9756 139.928 85.2023 140.296C85.3198 140.497 86.2338 140.309 86.2777 140.412C86.7844 141.621 87.2323 142.736 87.4948 143.231C87.6116 143.47 87.7103 143.528 87.4489 143.145C87.2285 142.811 86.2817 141.763 84.7686 141.366C84.672 141.353 84.4599 142.373 84.2708 142.345C83.3432 142.231 82.8408 142.28 82.5864 142.159C82.3059 142.053 82.1975 141.828 82.1085 141.55C81.1786 141.804 80.8135 141.944 80.5074 141.999C80.2166 142.055 80.044 142.043 79.9127 142.003C79.2397 141.652 79.8905 141.188 81.6907 141.569C81.838 140.857 82.9706 140.138 83.6706 139.614C83.6895 139.595 83.7082 139.577 83.7265 139.559C84.5273 138.783 82.7049 137.925 82.701 137.823C82.5672 134.709 84.3107 133.64 85.7298 131.155C86.4079 129.967 87.4023 127.465 87.919 126.102C88.3215 125.019 89.0712 124.662 89.3288 123.618C89.3646 123.477 88.5179 123.147 88.5097 123.093C88.1682 121.55 89.779 123.142 90.2367 123.136C91.8993 123.121 92.8141 123.065 92.9788 121.49C93.0171 121.129 90.8115 118.671 90.9622 118.066C91.1631 117.282 91.98 118.119 92.1622 117.289C92.1783 117.219 91.5744 116.868 91.8549 116.464C93.1181 114.627 94.6524 112.821 95.6458 110.929C95.6754 110.873 95.7048 110.817 95.7339 110.761C95.8968 110.454 94.711 110.306 94.9321 109.851C95.9706 107.717 97.3103 105.511 98.9276 103.843C99.3287 103.434 99.8107 104.135 100.07 104.151C101.643 104.245 100.463 102.3 100.523 102.131C101.871 98.106 105.114 96.4748 106.656 92.5617C106.709 92.4215 106.362 91.2426 106.67 90.5549C106.849 90.1665 107.218 89.9099 107.911 90.0364C108.048 90.0547 110.074 90.4645 109.419 89.1317C109.379 89.0474 108.279 88.9051 108.879 88.2281C109.476 87.556 109.808 85.9845 111.422 85.6455C111.935 85.5324 113.983 85.9801 113.527 84.1287C113.476 84.0178 112.011 80.398 114.256 81.414C114.625 81.5833 116.441 83.2929 116.397 81.396C116.39 81.0285 115.643 81.0305 115.86 80.2605C116.2 79.071 117.685 78.4522 117.877 76.6774C117.901 76.371 117.47 74.4029 118.989 74.7395C119.224 74.7942 119.616 75.5725 120.004 75.3346C121.844 74.2186 123.212 72.3152 125.38 71.427C125.613 71.3317 125.819 71.3907 126.016 71.5128C126.549 71.7342 126.95 72.329 127.743 72.1101C128.884 71.7865 130.631 71.2864 131.181 70.3696C131.732 69.4492 129.961 67.8722 131.161 67.1709C136.214 64.2924 141.221 64.3634 144.995 63.2592C145.492 63.1139 144.88 62.5177 145.517 62.2684C145.757 62.1723 145.966 62.0741 146.091 62.0009C146.2 61.9407 146.262 61.8572 145.833 62.0938C145.568 62.266 145.23 62.4098 144.334 63.2982C143.97 63.6712 143.235 64.4899 142.619 65.7442C141.968 66.9678 141.321 69.4328 141.672 71.6471C142.604 76.5552 144.836 77.6029 145.385 78.2016C145.59 78.3614 145.772 78.4897 145.933 78.5958C146.086 78.6967 146.177 78.7523 146.28 78.8137C146.477 78.9302 146.625 79.0068 146.733 79.06C144.93 78.2759 142.092 77.0903 140.655 75.5014C138.663 73.3323 142.118 73.5943 140.432 72.3725C139.623 71.7871 137.699 73.711 137.442 73.6917C134.928 73.5377 133.804 71.8472 131.672 71.2311C131.229 71.1017 131.206 72.21 130.83 72.0871C130.528 71.9901 130.242 71.861 129.957 71.7097C128.83 71.1188 127.886 70.3163 126.919 69.8258C126.356 69.5417 126.057 70.2636 125.593 69.9135C124.486 69.0823 123.691 68.1719 123.084 66.8869C123.03 66.7708 124.185 66.3894 123.445 65.8453C122.251 64.9678 121.233 63.3661 119.53 63.0579C119.025 62.9701 117.978 64.3959 117.892 62.8345C117.876 62.5101 119.311 60.9225 117.336 61.7731C116.994 61.9034 114.093 62.8932 114.29 61.1077C114.34 60.6345 114.816 58.8622 114.246 58.8187C114.167 58.8193 113.872 59.7604 113.482 59.6187C112.164 59.1262 111.034 58.3519 109.813 58.0143C109.763 57.9975 109.713 57.981 109.662 57.9646C109.212 57.8206 109.375 59.0165 108.709 58.7685C106.879 58.0923 104.656 56.5791 102.993 55.1572C102.382 54.6325 103.286 54.2419 103.284 54.1356C103.295 52.432 101.775 53.7501 101.444 53.6626C99.4281 53.1036 98.74 51.4343 97.1523 50.4036C96.7112 50.11 96.3883 51.0556 96.2544 51.0496C94.8853 50.9269 96.6053 50.2199 96.2109 49.6225C95.1224 47.9463 93.5657 46.4489 92.1919 44.9633C91.6878 44.4168 91.384 45.7494 90.9339 45.2365C88.5412 42.53 86.5952 39.1164 85.6379 35.6491C85.5462 35.2884 85.4645 34.9308 85.3929 34.5766C85.2703 33.9626 86.1841 34.0171 86.3127 33.8287C87.226 32.5459 85.1004 32.0116 84.8367 31.7868C83.6448 30.8035 84.1688 30.0709 83.6741 29.0241C81.2204 23.7961 80.2104 17.7588 79.0111 14.0834C78.5415 12.5876 78.0924 11.251 77.5887 9.96844C77.9047 10.5277 78.2914 11.2254 79.3117 12.2341C80.2704 13.1976 82.1701 14.4329 84.3442 14.7688C88.9262 15.2884 90.4354 13.6263 91.1884 13.238C91.9488 12.6766 92.1617 12.3975 92.3306 12.2113C92.4838 12.0289 92.5297 11.9473 92.5465 11.9066C92.5737 11.7797 92.2374 12.1643 91.8859 12.615C90.5412 14.2579 89.3078 16.2069 88.0596 18.7621C87.8928 19.1002 89.0443 19.2833 88.9126 19.5822C87.3006 23.1076 84.9093 26.9834 81.8909 31.1244C81.8923 31.1493 81.8789 31.2012 81.8579 31.2788C81.8343 31.3591 82.768 31.839 82.7702 31.9731C82.7796 32.2453 82.3851 32.888 81.7548 33.5454C81.4486 33.8657 80.8338 33.0036 80.5379 33.3472C79.8385 34.1724 79.3166 35.3946 79.0124 36.733C78.8837 37.3064 80.1889 36.8378 79.9409 37.5612C78.3022 42.5015 75.8668 49.0995 70.3319 53.7261C69.946 54.051 68.0351 52.9659 67.7088 53.9658C68.1107 54.4209 68.6429 54.8893 69.1017 55.3428C68.0889 56.5606 66.9803 57.7005 65.7914 58.7556C60.7682 63.385 53.6264 67.4751 46.9316 70.0824C46.5901 70.2207 47.6196 71.0374 46.9659 71.307C43.1616 72.8644 39.5274 74.3766 35.4127 74.3235C35.0063 74.3178 34.6748 72.3138 33.6468 72.9029C33.4544 73.014 31.9027 73.6882 31.5572 74.2218C31.5147 74.3003 32.0424 75.1446 31.5107 75.302C28.4234 76.1972 25.1052 76.6601 21.9306 76.6517C21.4148 76.6489 21.7606 75.5634 21.4002 75.5511C18.8346 75.4735 16.233 76.6673 13.7379 76.1102C12.0487 75.7348 12.4095 73.924 11.3389 72.3466C11.1903 72.124 10.2152 72.2201 10.0291 71.2397C9.56391 68.775 9.65621 65.994 9.10422 63.3745C8.98908 62.8104 7.79709 63.5958 8.36636 62.1169C8.40831 62.0178 9.25945 61.4361 9.41363 60.9382C9.52251 60.5939 9.1063 59.629 9.36103 59.1721C9.61422 58.7157 10.0749 59.5085 10.5126 58.95C10.9597 58.3833 10.574 57.2761 11.5804 56.9882ZM87.389 136.216C88.6379 135.79 85.4672 134.199 85.832 135.462C85.8536 135.525 87.3266 136.24 87.389 136.216ZM40.0987 77.6147C40.1138 79.5371 42.0588 78.0946 42.1122 76.6557C42.1532 75.2098 40.0987 77.0351 40.0987 77.6147ZM30.5645 71.7207C30.6205 73.4683 34.0778 69.8118 32.561 69.7871C32.4758 69.785 30.5649 71.6216 30.5645 71.7207ZM15.0961 71.2985C15.0781 71.2539 14.3877 71.3139 14.3774 71.3624C14.1814 72.5316 15.5692 72.4101 15.0961 71.2985ZM20.0071 65.9577C19.9947 66.7507 21.4103 66.7129 21.4288 65.7261C21.443 64.9312 20.0197 64.9688 20.0071 65.9577ZM113.338 99.0787C113.389 99.0962 113.702 98.7073 113.447 98.5514C112.626 98.0499 112.471 98.779 113.338 99.0787ZM2.34165 56.96C4.95484 58.007 5.60558 62.4857 2.60117 61.1082C2.069 60.8562 4.19278 60.2101 3.59137 59.6355C2.51933 58.5959 0.857439 60.7893 0.00671619 59.0336C-0.144945 58.7138 2.19739 56.8936 2.34828 56.9561C2.34607 56.9574 2.34387 56.9587 2.34165 56.96ZM91.4849 137.484C91.534 137.488 91.8588 136.881 91.8242 136.846C90.9583 136.032 90.294 137.274 91.4849 137.484ZM133.836 79.5396C133.901 79.6031 135.275 79.0406 135.286 78.9465C135.289 76.9016 132.279 78.1409 133.836 79.5396ZM75.6516 120.769C74.9981 120.533 74.6148 120.24 74.6052 119.97C74.5744 119.644 74.8108 119.274 75.3729 118.854C75.4218 119.146 75.4787 119.44 75.534 119.738C75.585 120.039 75.6376 120.42 75.6516 120.769Z" fill="#FCFCFC"/>
<path d="M90.428 58.5864C89.2836 59.904 87.3361 61.0588 85.7339 61.7862C85.2334 62.0146 85.0431 61.3583 84.6815 61.4929C83.9631 61.7666 83.6563 62.4188 82.9143 62.6552C82.6693 62.7289 82.2605 61.7753 82.0182 61.8701C80.6947 62.3956 79.8782 63.408 78.6975 64.129C76.3396 65.5681 74.0947 67.0927 71.9851 68.6776C70.9323 69.4697 69.9239 70.2673 68.9977 71.0578C68.5398 71.4482 68.1088 71.8318 67.7466 72.1719C67.5618 72.3461 67.4037 72.4999 67.2868 72.6124C67.1718 72.7192 67.0928 72.8092 67.1499 72.6713C66.8898 72.9388 66.5286 73.6032 66.2413 74.4173C65.7522 75.7334 64.7302 77.8111 64.9538 79.735C64.9697 79.3843 64.9464 78.9159 64.8023 78.3727C64.4858 77.3902 65.49 77.6038 65.4781 77.378C65.0125 75.2819 64.0778 75.0323 63.6371 75.0741C63.1385 75.1337 62.6517 75.4079 62.1071 75.3169C61.4848 75.2326 61.2271 75.3581 61.1144 75.4475C61.0046 75.5446 61.0413 75.6352 61.1301 75.6919C61.3165 75.8082 61.7042 75.799 62.0973 75.6928C62.8987 75.4644 63.6363 75.126 64.2873 74.7236C64.9588 74.3017 63.5944 72.9783 64.6722 73.5932C64.7475 73.6335 64.9163 74.5668 65.1518 74.5771C65.6822 74.6022 66.4737 74.0736 66.841 73.9826C67.5696 73.8048 67.6646 73.7479 68.2942 73.445C69.1389 73.0456 70.3673 72.8991 71.141 72.1923C71.3046 72.0391 70.5711 71.3702 70.7811 71.0553C70.9887 70.7442 71.7965 70.3321 72.173 70.3521C72.5522 70.3725 72.8539 71.0678 72.9938 71.181C74.1843 72.133 73.964 69.8532 74.0366 69.7385C75.5939 67.6066 77.9885 67.1239 79.9246 65.4749C81.387 64.2256 82.7318 62.5387 84.3173 61.304C86.0552 59.9626 87.9024 59.0905 89.9333 57.904C90.2746 57.7067 90.6388 57.5131 91.0899 57.3292C91.2289 57.2732 91.2914 57.1766 91.3106 57.0578C91.3233 56.9415 91.2659 56.8122 91.2134 56.6811C91.1213 56.4221 90.9816 56.1359 91.7495 55.9388C92.3115 55.8203 92.7914 55.7138 93.8172 55.7811C94.929 55.8529 96.4167 56.3715 97.4792 57.3337C98.5351 58.2603 99.0969 59.3904 99.3618 60.2485C99.5777 60.9549 99.6317 61.4318 99.6664 61.8982C99.6812 62.1256 99.6848 62.3353 99.6818 62.5317C99.6785 62.7182 99.673 62.8262 99.6642 62.9643C99.6468 63.227 99.6192 63.4677 99.5859 63.6952C99.5102 64.1923 99.451 64.4441 99.3719 64.7699C99.0543 66.0025 98.7279 66.7708 98.3433 67.6186C97.6037 69.1936 96.7542 70.5031 95.7429 71.7474C95.5405 71.9922 94.827 71.2102 94.5723 71.428C93.0294 72.7858 90.0005 74.4488 93.2804 77.4023C92.5626 78.4243 91.702 79.6883 90.4192 80.2678C89.5962 80.6355 88.9764 79.5232 88.9684 80.5098C88.9652 80.7323 89.9129 80.945 89.8452 81.2458C89.5591 82.512 88.6478 83.5677 88.4918 84.8801C88.4618 85.1485 89.2333 85.4855 89.3328 85.6196C90.1275 86.7259 87.8769 86.6395 87.6451 86.76C85.9008 87.6884 85.7104 88.9521 84.969 90.2789C84.7953 90.589 85.9873 90.7507 85.8557 91.0685C85.1663 92.6981 84.2207 94.2688 82.9894 95.5428C82.7089 95.8331 82.0231 95.0727 81.8456 95.1888C81.0728 95.7074 82.6071 96.6875 81.9056 97.1924C81.7592 97.3014 81.0707 96.8431 80.9768 96.8284C79.5011 96.5988 81.1074 97.8687 81.0946 97.9914C80.9547 99.6036 78.6565 99.5141 78.3013 100.946C78.2621 101.116 79.365 101.218 79.2 101.665C79.1369 101.838 79.0739 102.007 79.0111 102.173C78.5629 103.297 78.007 104.297 77.5959 105.021C77.3931 105.371 77.2352 105.677 77.2011 105.661C77.1801 105.647 77.2032 105.535 77.1834 105.207C77.1688 104.894 77.0369 104.299 76.7294 103.845C76.372 103.316 76.0705 103.188 75.9385 103.15C75.799 103.117 75.7771 103.177 75.8066 103.245C75.8716 103.388 76.1254 103.575 76.401 103.732C76.6576 103.869 76.456 104.644 76.4614 104.74C76.8321 106.254 77.0202 104.21 77.0477 104.129C77.2482 103.925 77.4255 103.942 77.5744 103.971C78.1889 103.924 78.8831 103.837 78.4292 102.23C82.2607 100.914 84.4403 95.3094 89.1487 92.1014C89.2077 92.057 89.9692 92.7064 90.0836 92.615C91.4628 91.5234 89.9973 90.9422 88.9999 89.0048C88.7453 88.5245 91.1226 89.0351 91.3065 89.0568C91.9756 89.1517 93.0667 90.1889 93.2176 90.1738C94.4108 90.041 90.2147 87.5361 90.7631 86.6643C90.7873 86.6412 91.4752 87.2362 91.5974 87.2101C91.9808 87.1283 91.811 86.7272 92.2119 86.671C93.13 86.556 95.2733 87.6069 94.5748 86.1177C94.4842 85.9242 92.0379 84.6102 92.6342 83.9016C92.8849 83.6032 93.6757 82.2421 94.0785 81.9335C94.4706 81.6422 95.0647 82.3782 95.1152 82.3702C96.7511 81.974 96.928 82.617 98.7359 83.0192C100.541 83.4126 96.9213 81.3679 96.6608 80.9081C96.3962 80.4576 97.6907 80.2186 98.0962 80.2073C98.5005 80.1982 98.8376 80.7314 99.1042 80.6654C100.861 80.2095 97.6554 79.0889 97.3186 78.381C96.5088 76.7243 99.567 77.6387 100.293 77.0416C100.493 76.8747 99.7901 76.676 99.8508 76.454C100.099 75.5794 101.208 75.6169 100.978 74.3182C100.941 74.1051 99.7978 72.4376 101.235 72.7023C101.44 72.7435 101.982 73.3249 102.324 73.1022C102.833 72.7738 103.509 72.0092 103.617 71.3532C103.694 70.8712 102.353 70.6306 102.98 70.3689C103.259 70.2547 103.645 71.032 104.116 70.7845C104.585 70.5407 105.19 69.5156 105.415 69.1104C105.454 69.0401 105.457 68.973 105.436 68.9097C105.333 68.6146 104.685 68.3993 104.655 68.3454C104.461 67.9612 104.496 67.0197 104.534 66.9564C106.318 63.7739 109.304 61.387 110.089 57.7715C110.15 57.4896 109.135 57.3167 109.135 57.2701C109.061 56.2356 111.334 57.8604 112.416 57.5053C110.445 56.9193 110.935 56.6588 110.936 55.9364C110.935 55.5864 110.122 55.5127 110.055 55.4582C109.053 54.6345 110.635 54.7931 110.969 54.7945C112.188 54.8232 110.961 54.0819 111.774 54.0941C112.584 54.095 113.547 54.9251 113.723 54.256C113.067 53.8771 111.087 53.82 110.921 53.261C110.779 52.7674 110.788 52.2377 110.906 51.6607C110.966 51.3697 111.051 51.0707 111.174 50.7286C111.235 50.563 111.306 50.379 111.403 50.1581C111.506 49.9389 111.593 49.7034 111.904 49.2142C112.047 49.0341 112.182 48.877 112.31 48.7402C112.369 48.6796 112.447 48.5906 112.531 48.4965C112.612 48.4063 112.69 48.3246 112.769 48.2466C112.796 48.2239 112.876 48.1286 112.946 48.0534C113.02 47.973 113.097 47.89 113.224 47.7682C113.24 47.7528 113.258 47.7367 113.276 47.7198C113.296 47.7019 113.299 47.6964 113.421 47.5871C113.528 47.4962 113.66 47.38 113.939 47.2261C114.216 47.0928 114.693 46.815 115.622 46.9354C116.582 47.0343 117.466 47.9604 117.642 48.5054C117.886 49.1651 117.811 49.1349 117.843 49.2966C117.864 49.5467 117.85 49.7027 117.836 49.827C117.806 50.0696 117.768 50.1906 117.736 50.2978C117.706 50.3967 117.667 50.4996 117.657 50.5145C117.527 50.7784 117.389 50.9977 117.291 51.1298C116.845 51.766 116.484 52.1934 116.247 52.5987C115.41 53.99 115.319 54.469 114.666 55.1898C113.503 56.4455 115.033 56.5699 115.16 57.768C115.269 58.9965 112.371 56.9574 111.631 56.7497C110.893 56.5378 111.516 57.0247 111.065 56.9963C110.616 56.9668 110.334 56.3908 110.005 56.6931C109.674 57.0024 110.343 58.6326 110.973 59.1308C112.311 60.1781 114.106 60.5238 113.044 61.2364C112.982 61.2766 112.259 60.6674 112.063 60.8428C110.528 62.2616 109.539 64.0462 108.063 65.4778C107.858 65.6735 107.067 64.978 106.938 65.0862C105.592 66.2099 107.391 66.5138 108.655 68.2172C106.5 66.8254 104.892 66.5148 104.289 67.5897C103.925 68.2349 104.966 68.6583 105.426 69.4565C105.564 69.6991 104.637 69.7918 105.051 70.1285C106.401 71.2347 108.326 71.7273 107.032 72.4821C106.972 72.514 106.239 71.899 106.094 72.0427C105.157 72.957 106.644 73.9774 106.161 75.2665C105.77 76.298 103.858 77.4075 103.073 78.3562C100.615 76.8671 100.614 78.1328 102.017 79.6202C101.677 80.0544 101.364 80.6071 101.001 81.0289C100.845 81.2087 100.679 81.3724 100.489 81.5087C100.273 81.668 99.6675 81.0737 99.575 81.0508C98.1189 80.6993 99.5616 82.0267 99.5411 82.201C99.2433 84.0587 97.2447 84.6337 97.819 86.7428C97.84 86.8199 99.6097 87.7425 98.1137 87.5122C98.0097 87.4993 97.403 86.6304 97.0252 87.3041C96.6598 87.941 95.0974 89.0156 95.7849 90.211C95.8676 90.3495 96.2782 90.6398 96.5267 90.8452C96.773 91.0613 96.8636 91.1444 96.231 91.1489C96.0594 91.1601 95.488 91.2069 95.175 91.272C94.8385 91.3467 94.8617 91.4023 94.9171 91.3085L93.3467 90.9871C93.3755 90.733 93.1741 90.2366 94.1275 90.9146C95.5639 91.9362 97.0505 92.3423 97.1374 90.6948C97.1423 90.6448 96.2945 89.2612 96.5829 89.0426C97.0452 88.6937 97.8817 88.4046 98.3275 88.0005C98.5415 87.8058 97.7479 87.1803 97.7737 87.1336C98.8665 85.4369 100.489 85.1926 102.303 84.11C102.639 83.9107 102.562 82.1746 103.825 82.4882C105.205 82.8335 107.811 87.039 108.441 84.9311C108.701 84.0801 105.304 78.825 108.442 80.3213C109.799 78.0915 112.525 77.6169 113.768 75.2714L112.544 74.2762C112.522 74.3877 112.501 74.5075 112.48 74.6358C112.466 74.7537 113.728 75.9909 113.555 76.2193C113.302 76.5471 112.498 76.3041 112.294 76.5234C111.423 77.4229 111.372 78.7496 110.62 79.6767C110.334 80.0332 109.731 79.435 109.392 79.8528C109.052 80.2748 109.758 81.1913 108.911 81.4901C108.264 81.7206 106.104 80.8987 105.477 81.3453C107.282 82.6302 106.964 83.0112 106.934 84.0785C106.93 84.2833 107.667 84.5738 107.698 84.6935C107.835 85.1909 107.132 85.082 107.309 85.5828C107.351 85.7048 107.969 86.1417 108.037 86.2662C108.639 87.3495 106.747 87.0801 106.416 87.0357C105.169 86.8493 105.809 87.6487 105.196 87.7461C104.581 87.847 104.509 86.9916 103.993 87.2535C102.924 87.7978 102.225 88.9835 101.567 89.8343C101.306 90.1802 102.298 90.5321 102.279 90.5953C101.965 91.4679 100.565 91.5655 101.898 93.1516C97.3278 90.5904 101.991 93.8811 100.391 94.3017C100.264 94.3328 98.2074 92.9773 98.142 92.4563C98.0802 91.9309 99.0439 91.9165 98.9037 91.1538C98.8734 90.9715 97.4345 89.0322 97.3774 88.8731C96.9483 87.6073 99.9866 89.6779 100.175 89.7628C102.208 90.6693 100.719 88.4895 100.712 88.2055C100.698 86.8783 101.635 86.4557 101.698 85.3992C101.734 84.7222 99.8079 83.2751 100.127 82.951C101.193 81.8645 104.251 83.3533 102.672 80.5224C102.337 79.9154 99.9994 78.6699 102.32 78.952C102.464 78.9728 104.487 79.3738 103.758 78.3187C103.667 78.1843 103.033 77.7527 103.023 77.6519C102.971 76.9898 103.672 77.0471 103.74 76.4247C103.817 75.7886 103.822 75.0006 104.394 74.6112C104.732 74.3855 106.195 74.7641 106.59 74.7995C107.717 74.9226 106.639 73.551 107.835 73.9487C109.04 74.3447 110.253 75.9005 111.391 75.598C109.732 74.4935 108.048 73.3317 106.389 72.2062C106.674 71.7976 106.997 71.4067 107.303 71.0622L117.98 79.7496C116.779 80.593 115.541 81.292 114.533 82.2897C114.363 82.4606 115.264 83.0903 115.1 83.2943C114.398 84.1567 113.177 84.2244 112.537 85.2029C112.044 85.9629 112.08 87.4472 111.585 88.2672C109.659 86.9276 109.159 88.4017 108.286 88.8929C107.981 89.0656 107.595 88.5941 107.28 88.6062C106.106 88.6605 107.759 89.8899 107.779 90.2948C107.86 92.025 104.78 88.6611 103.898 89.5845C103.85 89.6327 104.833 92.0034 104.847 92.1926C104.954 93.4116 104.199 91.6354 103.742 91.7976C102.905 92.0945 102.092 92.0344 101.834 93.2066C101.76 93.5509 102.249 95.1368 101.066 94.6144C100.911 94.5462 100.412 93.9152 100.337 93.9179C99.0314 94.0178 100.673 95.9363 100.785 96.9743C100.888 97.9364 99.3119 97.4023 98.7049 97.1165C94.5882 100.205 89.4619 99.6309 87.5819 94.8403C87.5167 94.5928 87.4843 94.3997 87.4661 94.2531C87.3779 93.5177 87.4855 93.2745 87.5475 93.0884C87.6198 92.9197 87.6947 92.8927 87.7642 92.954C87.9147 93.0828 87.9938 93.5443 88.3963 94.4482C90.0381 98.6318 94.5149 99.1329 98.11 96.436C98.2442 96.3566 98.4644 96.326 98.4354 96.2744C97.9264 95.3747 97.6075 95.3603 97.3114 95.5224C94.4165 97.6941 90.8116 97.2905 89.4896 93.9217C88.9233 92.5616 88.9775 91.929 88.9748 91.4147C91.4133 91.0068 91.376 90.0496 89.1431 90.2003C88.8927 90.2115 89.0623 91.081 88.9748 91.4147C86.4853 90.0985 86.5414 88.1543 89.0559 87.6643C90.2385 87.4389 91.2557 88.2511 91.3094 86.7261C91.3464 86.0428 89.6661 85.6641 89.463 84.9213C89.0233 83.1816 91.2315 82.2943 91.6428 81.0322C91.794 80.5693 90.7505 80.5287 90.8297 80.1913C91.0461 79.2838 92.0448 78.9702 92.1981 78.0414C92.2117 77.9556 91.2788 77.6062 91.4131 77.3668C91.8077 76.6515 92.2791 76.0522 92.7881 75.4769C93.3853 74.8737 94.1031 74.1803 94.6849 73.2401C95.126 72.5309 95.4799 70.8622 96.0192 70.1372C96.9706 68.8481 99.1861 67.7917 99.554 66.405C99.7965 65.5046 98.8431 65.2105 98.4448 64.5514C97.6718 63.2762 100.33 63.2182 100.732 63.2259C100.745 63.2267 100.576 64.0251 101.216 63.8956C102.251 64.1775 100.732 63.2356 100.732 63.2259C100.992 63.2322 101.925 61.9606 101.907 61.5959C101.896 61.3987 101.035 61.047 101.045 60.9526C101.295 58.7203 102.054 56.7642 103.407 55.0835C103.441 55.059 104.335 55.583 104.403 55.5192C105.369 54.6491 104.599 53.3692 104.383 52.1305C104.162 50.9 104.734 50.3158 106.59 50.5721C106.718 49.8093 107.896 49.1832 108.573 48.8633C109.26 48.5216 107.447 47.6356 107.434 47.5679C107.346 47.2653 107.295 47.0291 107.25 46.8928C107.222 46.8399 107.206 46.7802 107.135 46.9039C107.117 46.935 107.096 46.9777 107.071 47.0383C107.057 47.0732 107.05 47.0883 107.026 47.1581C106.995 47.2495 106.958 47.3669 106.913 47.5387C106.844 47.9314 106.621 48.2748 106.67 50.0702C106.684 50.3056 106.709 50.573 106.757 50.8843C106.769 50.9622 106.783 51.0428 106.798 51.1263C106.817 51.2234 106.817 51.2405 106.882 51.5243C106.991 51.982 107.154 52.5224 107.444 53.1506C107.99 54.3747 109.256 56.1229 111.261 57.1486C113.253 58.2023 115.4 58.2357 116.71 57.9849C119.373 57.4047 120.005 56.6089 120.585 56.2208C120.849 56.0067 121.029 55.8379 121.174 55.697C121.247 55.6251 121.254 55.6179 121.29 55.5808C121.762 55.0931 121.867 54.9239 121.961 54.8014C122.05 54.6773 122.041 54.6817 122.05 54.6601C122.057 54.6308 122.022 54.6504 121.965 54.6983C121.873 54.7596 121.733 54.8627 121.557 55.0171C121.969 54.2247 121.953 54.0313 121.967 53.9029C121.966 53.7859 121.921 53.7853 121.872 53.8212C121.771 53.8984 121.644 54.1189 121.535 54.403C121.246 55.1487 121.006 57.1294 120.888 58.2154C120.799 59.0878 120.19 59.421 120.215 60.2653C120.218 60.3787 121.1 60.5754 121.121 60.6175C121.831 61.8275 119.91 60.6783 119.481 60.7139C117.919 60.8356 117.081 60.9212 117.301 62.1733C117.351 62.4615 119.986 64.3579 119.959 64.8838C119.926 65.5479 118.979 64.8888 118.97 65.5837C118.967 65.6434 119.611 65.9178 119.414 66.275C118.509 67.9335 117.238 69.5324 116.365 71.2306C116.242 71.4631 117.372 71.7136 117.211 72.0561C116.707 73.121 116.086 74.1845 115.319 75.1277C114.957 75.5574 114.565 75.9507 114.141 76.29C113.836 76.5293 113.3 75.9235 113.063 75.8681C111.625 75.538 112.976 77.1951 112.945 77.3182C112.328 80.1377 109.656 80.9642 108.931 83.7869C108.892 83.9477 110.121 86.0846 108.269 85.5388C108.144 85.5047 106.247 84.9497 107.113 86.0248C107.167 86.0917 108.171 86.3347 107.789 86.7599C107.414 87.1763 107.484 88.3052 106.161 88.3941C105.744 88.4233 103.829 87.905 104.721 89.339C104.782 89.442 107.105 92.1913 104.874 91.3029C104.509 91.1528 102.422 89.7761 103.044 91.2001C103.166 91.4734 103.8 91.512 103.862 92.0693C103.963 92.92 102.903 93.3512 103.403 94.6462C103.49 94.8784 104.583 96.3252 103.228 96.0569C103.016 96.0147 102.39 95.4427 102.171 95.6141C101.105 96.4557 100.855 97.8802 99.6509 98.6642C99.2231 98.9465 98.2261 98.0065 97.6594 98.2093C97.1029 98.3975 96.2541 99.0429 96.4879 99.7959C96.7059 100.573 98.8074 101.309 98.5008 102.062C97.1412 105.327 94.0666 107.543 90.7958 110.528C90.291 110.976 91.2383 111.144 90.4907 111.857C88.9226 113.362 85.9866 115.939 82.3406 117.103C77.9375 118.482 75.1377 117.785 72.812 116.616C70.5905 115.337 71.1018 114.754 71.7202 114.51C72.3083 114.193 72.9468 114.069 71.3876 113.161C70.7353 112.752 69.7572 112.672 68.5534 112.31C67.3693 111.984 65.9586 111.198 65.1859 110.402C64.9056 110.125 64.7124 109.882 64.6192 109.71C63.0636 106.783 63.3252 104.15 63.575 102.817C63.8617 101.397 64.2503 100.642 64.5747 100.037C65.2341 98.8721 65.7707 98.3393 65.9397 97.6525C66.004 97.3831 64.9885 97.1329 65.0491 96.916C65.1757 96.4289 65.4853 96.1846 65.6823 95.9879C65.8499 95.7385 66.0034 95.4839 66.1033 95.2102C66.2382 94.8352 65.5095 94.5649 65.7236 94.2578C66.2042 93.57 66.8456 93.0072 67.8464 92.6306C67.9382 92.5951 68.5776 93.4675 68.883 92.9392C69.3826 92.0686 70.569 91.3241 70.4182 90.0126C70.3726 89.6188 68.8121 88.7845 70.2247 88.7202C70.5192 88.7081 72.3113 89.8636 71.0667 88.2868C70.8602 88.0233 69.317 85.6441 71.0423 85.7994C71.4962 85.8404 73.247 86.2506 73.1864 85.784C73.1727 85.7171 72.235 85.4559 72.3047 85.1284C72.5679 83.9768 73.2188 82.9781 73.5084 81.8108C73.5833 81.4997 72.4989 81.4402 72.6383 80.9913C73.0215 79.7538 73.9907 78.482 74.8451 77.542C75.1617 77.1966 75.7306 77.8585 75.8244 77.8714C77.3461 78.0852 75.7793 76.8892 75.7621 76.6813C75.6826 75.3918 76.8754 75.0997 77.1353 74.0964C77.2082 73.8226 76.297 73.5597 76.2498 73.4723C75.802 72.5923 77.0755 73.747 77.4058 73.5166C78.3407 72.8647 78.7931 71.8468 79.1583 70.8903C79.289 70.5425 78.1437 70.412 78.2711 70.107C79.0128 68.2808 80.0125 66.5457 81.3301 65.1786C81.5798 64.9217 82.2339 65.473 82.4353 65.491C83.839 65.6278 82.514 64.1976 82.4185 63.9922C81.9897 63.0446 82.7867 63.055 82.8783 62.4956C83.0132 61.7062 83.2153 60.8573 83.1935 60.7675C83.1823 60.7832 83.1562 60.8112 83.0905 61.2006C83.0594 61.4004 83.0224 61.6828 83.0091 62.1068C82.9996 62.668 82.9943 63.5169 83.3432 64.8348C83.7073 66.4151 85.3313 69.6678 88.6153 71.2773C90.1671 72.0689 91.744 72.3538 92.9447 72.3844C93.8214 72.4077 94.5105 72.3212 95.0769 72.2134C95.6415 72.1038 96.0751 71.9704 96.4208 71.8468C96.6842 71.751 96.8601 71.6748 97.0279 71.5979C97.3541 71.4466 97.559 71.3253 97.6947 71.2386C96.8902 71.6001 95.8157 72.1716 94.7923 72.8222C91.6997 74.8125 88.4765 76.7783 84.9377 79.76C84.707 79.9521 85.619 80.6417 85.4259 80.8204C82.9014 83.086 79.7697 84.6639 76.7879 86.633C76.5394 86.7941 77.4127 87.5115 77.0233 87.8037C76.2293 88.4086 75.0758 88.9207 74.0313 89.037C73.5218 89.0958 73.7352 88.0095 73.235 88.0822C72.0891 88.2387 70.9757 88.6308 69.9719 89.2015C69.5493 89.4441 70.6181 90.1768 70.0301 90.4166C69.1144 90.7924 68.21 91.1429 67.2751 91.4636C65.6276 91.9847 63.9083 92.5351 60.8125 92.4837C59.2348 92.372 57.1484 92.3512 53.9155 90.4614C50.4818 88.7754 47.606 82.8164 48.0772 79.7034C48.2539 78.5955 48.5365 77.4835 48.9558 76.3728C49.0763 76.0511 51.2594 75.9675 50.9141 75.2703C50.3202 75.1558 49.6151 75.0817 48.9771 74.989C49.2259 71.7196 49.8111 68.2723 52.348 64.0276C54.4048 60.9419 55.4476 60.3219 56.7124 59.0768C57.9231 57.9745 59.0669 57.0023 60.1818 56.0204C60.3597 55.8638 59.2785 55.2934 59.6222 54.9833C61.5848 53.2162 63.2679 51.3347 65.973 50.5348C66.2394 50.4554 67.4609 52.0733 67.8261 51.363C67.8888 51.2362 68.5826 50.2986 68.5211 49.7773C68.5091 49.7008 67.743 49.1099 68.0057 48.8539C69.5398 47.3812 71.3835 46.1402 73.3689 45.2642C73.6884 45.126 74.0485 46.1311 74.2816 46.0394C75.9424 45.3733 76.8955 43.618 78.7319 43.3133C79.9669 43.1097 80.7438 44.7171 82.26 45.6955C82.4734 45.8339 83.0195 45.4454 83.6698 46.2009C85.3048 48.1007 86.767 50.4439 88.5397 52.445C88.9201 52.8771 89.2327 51.8335 89.6868 53.2502C89.7153 53.3464 89.4999 54.1098 89.6727 54.5756C89.7912 54.8985 90.5788 55.5655 90.6657 56.0306C90.7517 56.4961 90.0348 55.9825 90.0473 56.6014C90.0678 57.2216 90.9153 58.0189 90.428 58.5864ZM118.434 52.3505C117.366 52.2285 120.367 54.1172 119.872 53.3098C119.845 53.269 118.486 52.3578 118.434 52.3505ZM114.129 78.9242C112.497 78.2983 113.648 80.357 114.869 80.8787C116.098 81.3915 114.627 79.11 114.129 78.9242ZM107.9 78.1454C109.425 78.0858 105.318 75.1841 105.639 76.5308C105.655 76.6089 107.811 78.1496 107.9 78.1454ZM80.4913 47.7446C80.5269 47.7763 80.9329 47.5077 80.9131 47.4638C80.4077 46.4251 79.5948 46.964 80.4913 47.7446ZM104.422 85.3738C105.144 85.5305 104.962 84.4238 104.072 84.2206C103.357 84.0542 103.527 85.1754 104.422 85.3738ZM101.776 77.9335C101.726 77.9137 101.507 78.1768 101.764 78.3283C102.593 78.8164 102.612 78.2716 101.776 77.9335ZM96.5321 96.3391C97.8737 94.8549 101.939 96.3376 100.258 97.8192C99.9554 98.0851 99.7011 96.3483 99.102 96.5275C98.0078 96.8574 99.7336 98.9046 98.0471 98.8265C97.7412 98.8087 96.4508 96.4152 96.5295 96.3329C96.5304 96.3349 96.5312 96.3371 96.5321 96.3391ZM114.678 50.3248C114.643 50.3076 114.442 50.5642 114.376 50.7005C114.366 50.7236 114.363 50.7414 114.369 50.7471C114.646 50.9878 114.904 51.0392 115.035 51.0964C115.412 51.0579 115.423 50.639 114.678 50.3248ZM89.2649 93.6822C89.1642 93.6549 88.4866 94.4948 88.5409 94.5768C89.744 96.0851 91.1444 94.3531 89.2649 93.6822ZM102.997 78.3336C103.676 79.3968 103.466 79.9904 102.02 79.6189C102.385 79.1798 102.647 78.7757 102.997 78.3336Z" fill="#FCFCFC"/>
</svg>
