<svg width="99" height="127" viewBox="0 0 99 127" fill="none" xmlns="http://www.w3.org/2000/svg">
<path d="M12.6417 121.831C13.8797 118.766 15.0876 114.696 15.9776 111.515C16.2487 110.54 15.6707 110.864 15.8406 110.189C16.1969 108.811 16.8618 107.703 17.1854 106.391C17.2976 105.939 16.4587 106.215 16.5911 105.747C17.3142 103.208 18.4415 101.034 19.4044 98.5955C24.1832 86.6089 30.451 75.4308 39.5771 66.7107C42.1468 64.2282 45.3013 61.3135 48.7333 59.0303C49.2591 58.6755 49.7824 58.3481 50.3057 58.0494C50.7499 57.7973 50.8168 58.4578 50.9244 58.4457C52.5885 58.2615 51.5298 57.5272 52.292 56.8698C55.3201 54.2682 59.3035 52.2431 62.9916 50.8511C64.5652 50.256 63.5003 52.0124 64.7828 50.7237C64.8728 50.6353 64.2275 50.2362 64.6241 49.9876C65.5233 49.4257 67.4156 48.7149 68.1559 48.3276C69.5793 47.5793 69.8252 47.4756 71.2121 46.8166C71.7237 46.5703 72.2523 46.2876 72.7931 45.985C73.3731 45.5763 74.5052 45.3086 75.7511 45.5865C76.11 45.6691 75.547 46.2335 76.0928 46.429C76.3391 46.5189 76.7901 46.6222 77.3077 46.7346C77.7406 46.8207 78.1449 46.9261 78.3586 46.9361C78.745 46.9569 78.8496 46.4497 78.9644 46.3781C79.8082 45.9191 80.2403 47.206 80.129 47.6885C80.1175 47.8171 80.094 47.8956 80.1006 47.9182C80.1951 48.2646 80.1006 48.2482 80.0814 48.3894C80.0524 48.526 79.9752 48.8828 79.7736 49.3469C78.5695 52.0724 77.261 54.8724 75.4535 57.5942C73.3987 60.6762 70.8031 63.7627 68.642 66.6307C66.0718 70.0413 64.0509 73.1024 61.3516 76.3055C61.0671 76.6437 60.8118 75.7649 60.4633 76.1766C56.759 80.5528 53.1404 84.9718 49.8526 89.7453C49.5219 90.2267 50.5096 90.0714 50.2107 90.5766C48.6767 93.1426 46.6782 97.1697 44.0152 98.3923C43.4425 98.6929 42.9083 98.787 42.3656 98.706C42.3138 98.7824 42.1894 98.9487 42.1067 99.061C42.0193 99.1794 41.9448 99.2802 41.8873 99.3594C41.8563 99.4099 41.7086 99.5824 41.7893 99.5091C41.8105 99.4912 41.8453 99.4594 41.9178 99.3997C41.9361 99.3847 41.957 99.3679 41.9813 99.3487C41.9935 99.3392 42.0066 99.329 42.0208 99.3182C42.0896 99.2662 42.2307 99.151 42.5149 98.9971C42.8199 98.8693 43.245 98.5225 44.5438 98.5917C45.1769 98.6382 46.0657 98.9614 46.6815 99.5616C47.3083 100.154 47.5886 100.841 47.704 101.31C47.9114 102.27 47.7725 102.633 47.7353 102.901C47.7079 103.031 47.6814 103.124 47.6583 103.199C47.6348 103.274 47.6447 103.241 47.638 103.262C47.5246 103.576 47.4919 103.597 47.4846 103.608C47.5237 103.497 47.6283 103.281 47.8008 102.963C47.918 102.733 48.0532 102.474 48.2135 102.174C48.7795 101.09 49.3227 99.9749 49.7104 98.8891C50.1446 97.5907 48.8018 98.2723 50.0232 97.0389C50.303 96.7541 50.5402 97.5233 50.9092 97.0858C52.449 95.264 53.7808 93.0138 55.4357 91.2515C55.7767 90.8896 56.1546 91.3356 56.3171 91.2832C57.6323 90.8594 57.6699 88.4659 57.8173 88.0924C59.09 85.0611 60.6725 83.3865 62.4213 80.9842C62.8285 80.425 62.9567 81.5322 63.3674 81.0148C65.4841 78.334 67.5625 75.4557 69.3262 72.594C69.719 71.9542 68.7869 72.1057 68.9485 71.7796C69.6701 70.3451 70.8436 70.8279 71.5613 69.4709C71.7139 69.1862 71.1658 68.9874 71.1534 68.9041C70.9574 67.5976 72.5091 67.8147 72.6746 67.6522C74.8193 65.5841 74.8859 63.233 76.842 61.1594C77.0792 60.9106 77.1322 61.9516 77.764 61.2281C81.4675 57.0747 85.3871 52.0539 88.9817 48.7879C89.5635 48.3257 90.1218 47.8415 90.6538 47.3355C91.4324 46.5821 90.4983 46.6691 90.5112 46.5748C90.6709 45.1198 92.0668 45.6527 92.3665 45.4333C94.2865 43.9969 94.9796 41.7341 96.5225 40.8447C96.899 40.5444 97.2774 40.2529 97.6875 39.9268C98.1889 38.753 98.2679 37.1656 97.8037 35.9223C97.3738 34.7071 96.6421 33.8371 96.007 33.2077C94.6658 31.9161 93.334 31.1615 92.0162 30.4563C89.3615 29.0837 86.7756 28.1327 84.1446 27.2677C78.905 25.5758 73.6185 24.4209 68.264 23.8567C68.1271 23.8405 68.2059 24.5498 67.9338 24.5149C64.6802 24.1048 65.5362 23.246 63.7938 21.4874C63.4247 21.1266 62.0885 21.7578 61.5217 22.0466C61.4144 22.1236 61.3349 22.1755 61.3089 22.1898C60.7941 22.449 60.862 23.5316 60.697 23.5582C59.9322 23.6032 59.8684 22.8235 60.138 22.1308C60.2163 21.9686 60.2931 21.7738 60.5221 21.7568C60.5881 21.7667 60.6534 21.7668 60.7774 21.8851C60.835 21.9421 60.9055 22.0145 60.9922 22.2008C61.0341 22.2976 61.0708 22.3774 61.1059 22.5625C61.1384 22.7441 61.1506 22.9776 61.0997 23.2428C61.0227 23.8209 60.4547 24.4357 60.1482 24.5889C59.7673 24.8064 59.6156 24.8288 59.4543 24.8768C59.1739 24.9478 59.068 24.9634 58.993 24.9954C58.7101 25.1041 58.7441 25.2304 58.7603 25.35C58.7913 25.4697 58.8799 25.5816 59.0241 25.676C59.0708 25.7045 59.1203 25.7314 59.1726 25.7565C59.2308 25.7782 59.2589 25.1187 59.4346 25.1359C59.9829 25.1885 60.3281 25.6252 60.8617 25.6566C62.1026 25.7367 63.2122 24.496 64.3307 26.1479C64.4684 26.362 63.2978 27.8439 64.8469 28.5995C65.4665 28.8877 68.0711 30.4578 68.8512 30.8228C69.6336 31.1739 69.4643 30.3539 69.5278 30.363C71.9068 30.9463 71.3488 30.1979 72.9942 29.8801C74.6422 29.5856 72.7732 31.7067 72.9785 32.233C73.1734 32.7462 74.9431 33.2337 75.4061 33.3081C75.8837 33.387 75.6954 32.7584 76.0757 32.8883C78.5704 33.7788 76.0611 34.652 76.4102 35.5053C77.1676 37.4998 79.6104 36.9088 81.0235 38.029C81.4002 38.3302 80.7846 38.3813 81.0525 38.7167C81.5519 39.3347 82.0013 39.698 82.6149 40.2018C82.7904 40.3394 82.9008 40.4207 83.0404 40.5467C83.1114 40.6113 83.1544 40.653 83.1789 40.6812C83.1802 40.6823 83.1723 40.6747 83.146 40.6356C83.1328 40.6154 83.1146 40.5872 83.0897 40.5379C83.0885 40.5351 83.0385 40.4398 83.0085 40.3163C82.9807 40.1891 82.931 39.9648 83.053 39.6334C83.1673 39.2958 83.54 39.0121 83.7816 38.9539C84.0304 38.8817 84.171 38.9037 84.2645 38.9133C84.5081 38.957 84.4864 38.9724 84.5244 38.9823C84.5462 38.9913 84.5398 38.9877 84.5285 38.9797C84.3072 38.8283 83.9565 38.4996 83.6336 38.0783C83.4284 37.8181 82.9075 35.9006 81.5548 36.0472C81.361 36.0695 81.3805 36.7256 80.729 36.3933C79.748 35.8919 78.0974 34.8217 77.2668 34.0004C76.6393 33.3833 77.9448 33.2793 76.9162 32.8568C76.4551 32.6671 76.8876 33.6008 76.043 33.2088C75.2162 32.8288 73.3512 31.4497 72.6547 30.9286C71.9483 30.399 72.7198 30.156 72.6865 30.0783C72.4907 29.6289 71.2958 28.3914 71.1754 28.3076C66.7356 25.0874 62.1493 22.599 57.5612 20.0112C55.9755 19.1259 54.4834 17.9578 53.0903 16.6245C52.6857 16.2368 53.4162 15.9666 53.3591 15.9021C52.1192 14.4247 52.0435 16.7865 50.6237 16.3281C51.6985 15.4318 50.9408 15.0838 50.0228 14.0379C49.5789 13.5331 50.2082 13.3804 50.2003 13.2989C50.0768 12.4704 49.5011 12.306 49.0418 12.3117C48.7715 12.2945 48.558 12.3449 48.4603 12.36C47.9687 12.4591 47.7264 12.1994 47.4954 11.9218C47.4374 11.8682 47.4646 11.8618 47.2814 11.7398C47.2416 11.7347 47.2706 11.6651 46.803 11.5888C46.6722 11.5808 46.457 11.5671 46.156 11.7179C45.8499 11.859 45.5843 12.2553 45.5457 12.53C45.4735 13.0865 45.6177 13.1892 45.6471 13.2944C45.8144 13.5886 45.811 13.5357 45.8453 13.5879C45.8859 13.6382 45.9496 13.7044 45.9423 13.7028C45.9768 13.757 46.0211 13.8137 46.0804 13.8695C46.2255 14.0055 46.3085 14.0255 46.4838 14.0063C47.1683 13.9175 46.9354 12.6565 47.9078 13.5482C47.8574 14.1698 46.2366 14.4574 46.8786 15.3156C49.166 18.4368 55.2261 22.3225 57.617 24.2074C60.0148 26.1044 60.7052 26.7997 62.1752 27.7961C64.8472 29.6007 63.3281 29.5868 64.5852 31.1976C65.8471 32.8066 66.601 30.3608 67.145 30.1496C67.6848 29.9346 67.5934 30.5366 68.0393 30.5401C68.4848 30.5432 68.1224 29.8003 68.8204 30.2351C69.5173 30.6706 70.6892 32.7838 70.5828 33.3798C70.3559 34.6434 68.822 34.9312 70.7846 35.9709C70.8979 36.0298 70.9688 35.2898 71.3828 35.5401C74.656 37.5407 77.7985 39.95 81.0978 41.8693C81.5477 42.1288 81.586 41.2957 81.857 41.4435C84.6705 42.9582 83.0653 43.2266 83.7347 45.3007C84.4149 43.6625 85.8118 43.3821 87.7602 44.6956C88.9728 45.5032 88.3235 45.973 88.8211 46.9322C88.9816 47.2289 90.117 47.335 90.0776 47.7256C90.0628 47.9022 90.0229 48.066 89.9708 48.2195C89.643 49.1927 88.8935 49.8067 90.9414 50.5264C91.0417 50.5581 91.0902 49.847 91.412 49.9958C91.8666 50.1961 92.4061 50.5487 92.7076 50.8165C93.0398 51.1022 93.2049 51.3489 93.4624 51.6581C93.7814 52.0007 94.0556 52.3267 94.3658 52.6237C94.394 52.6555 94.4684 52.7093 94.5517 52.7649C94.6323 52.8192 94.7133 52.8718 94.7977 52.923C94.9694 53.0253 95.1378 53.1228 95.4104 53.2194C95.4502 53.2325 95.465 53.2396 95.5371 53.2584C95.6957 53.2937 95.8855 53.3344 96.2023 53.3322C96.5091 53.3186 97.0216 53.3004 97.672 52.8361C98.3442 52.3841 98.7223 51.3747 98.6824 50.8128C98.6826 50.5249 98.6288 50.2758 98.5918 50.1397C98.574 50.0709 98.555 50.0086 98.5359 49.9516C98.4974 49.8375 98.4582 49.7437 98.4207 49.6619C98.3453 49.4991 98.2764 49.382 98.2126 49.2803C98.0851 49.0798 97.9744 48.9385 97.8571 48.7976C97.7917 48.7203 97.7539 48.6763 97.7282 48.6452C97.6989 48.6105 97.6687 48.5756 97.6374 48.5405C95.9584 46.7449 92.6266 45.1317 90.7332 43.7913C89.5507 45.3284 88.1321 43.6639 88.2058 42.0341C86.9665 41.1492 85.6857 40.0756 84.428 39.351C83.993 39.0993 83.9136 39.7448 83.8268 39.7551C82.4816 39.9283 82.73 38.4833 82.4935 38.2399C79.9919 35.7214 77.0391 34.7333 74.9354 31.9457C74.8597 31.8454 75.5147 30.6516 74.1933 30.8898C74.1059 30.9089 74.6377 32.0754 73.3271 31.1502C72.0369 30.2405 69.1878 29.006 67.7962 27.1812C67.4579 26.7394 67.0299 25.0504 65.648 25.0821C65.4625 25.0881 65.3571 25.4923 65.0609 25.539C64.1092 25.6816 64.6338 24.3719 63.3044 24.8211C61.9673 25.2643 60.135 24.9725 58.8253 22.9879C58.7822 22.9264 59.0062 21.7437 58.4366 21.3361C57.5349 20.6925 56.1161 19.9044 55.1894 19.1954C54.7471 18.8565 55.4359 18.5366 55.3661 18.4685C52.5775 15.8883 50.1147 14.7723 46.739 12.5024C46.168 12.125 44.9936 10.0612 43.4362 9.75644C41.6744 9.37241 40.9856 13.0423 38.5637 10.0962C37.7698 9.08143 38.455 5.59221 36.6637 4.63621C36.3948 4.47079 36.0386 4.43179 35.6751 4.56508C34.5452 3.88896 32.8359 3.77968 31.365 3.39018C30.67 3.22409 29.9878 3.05172 29.3203 2.91872C28.9913 2.85417 28.6462 2.79387 28.3733 2.78385C28.3036 2.78134 28.2439 2.78375 28.2087 2.78989C28.1784 2.78641 28.1631 2.83856 28.3343 2.72936C28.4229 2.66997 28.5194 2.50606 28.527 2.39003C28.5386 2.29085 28.5199 2.23834 28.5188 2.22759C28.5111 2.19967 28.5332 2.24285 28.5663 2.28285C29.315 3.12073 30.5378 3.99847 31.594 4.94192C32.0458 5.33645 32.4861 5.74626 32.9126 6.17676C33.0741 6.3394 32.9569 7.70436 33.4057 8.01589C34.0681 8.47284 34.7399 8.28989 35.2189 8.59589C37.2523 9.87931 38.7557 11.531 40.6812 12.797C41.4154 13.2802 41.4921 12.6467 42.3632 13.216C43.2187 13.7734 43.3961 14.7988 44.7535 15.2924C45.7998 15.6756 47.5251 15.013 48.7897 15.6432C47.997 16.9112 48.8365 17.4375 50.0622 18.7087C50.3014 18.956 49.7159 19.1957 49.8145 19.3352C50.2133 19.915 50.9243 19.8609 51.2942 20.445C51.3821 20.5847 51.1125 21.0185 51.1687 21.1568C51.6219 22.3416 53.6857 22.2789 54.0446 22.2648C55.3962 22.2091 55.4981 23.0487 56.381 23.2326C57.2546 23.409 56.363 22.4372 57.3131 22.7958C59.2798 23.5363 61.5199 24.9194 63.3794 25.8303C64.1272 26.197 63.317 26.5543 63.4166 26.6208C64.116 27.0597 64.9744 27.3174 65.6729 27.5646C66.062 27.6794 66.2958 27.8627 66.7142 27.8676C66.8443 27.8428 66.9251 27.6969 66.9269 27.5604C66.9389 27.4487 66.9435 27.3602 66.9346 27.2439C66.9307 27.0424 66.9493 26.8634 66.9603 26.633L66.9836 26.6628C66.9936 26.6278 67.0048 26.5924 67.0171 26.5567C63.47 27.6371 66.6724 25.5301 64.7494 23.8882C64.5968 23.7578 63.0651 24.4499 63.2763 25.2185C63.4909 25.9898 64.5592 26.6577 64.8826 27.7503C64.9017 27.8142 64.8922 27.9908 64.8701 28.2245C64.8833 28.2414 64.9221 28.2928 64.9362 28.3089C64.8936 28.4407 64.8183 28.605 64.6164 28.5631C64.5628 28.5446 64.4984 28.5046 64.4262 28.4262C64.3902 28.3869 64.3524 28.3378 64.3144 28.2759C64.2731 28.2039 64.2162 28.0516 64.1814 27.8796C64.1116 27.5305 64.0968 26.98 64.4156 26.3606C64.7448 25.7177 65.3302 25.3194 65.7066 25.1547C66.276 24.8938 66.4656 24.8738 66.6307 24.8071C66.7494 24.7502 66.7944 24.6996 66.8362 24.6547C66.912 24.5652 66.9125 24.4955 66.9161 24.4777C66.8991 24.2841 66.6843 24.2262 66.4684 24.2805C66.2705 24.3428 66.0389 24.5106 65.8247 24.7147C65.4003 25.1242 65.0763 25.6948 65.0127 25.7409C63.6012 26.724 62.8167 24.4236 62.5044 24.1191C60.9641 22.684 59.3149 22.1194 58.0311 20.9079C57.2195 20.1326 57.9425 18.6683 57.1936 18.2659C54.651 16.8814 52.549 18.2234 51.3157 15.0684C51.0574 14.3952 52.5177 13.2362 49.9928 13.234C49.8382 13.2376 47.8107 13.4167 47.517 12.2382C47.4796 12.0894 47.7739 11.6635 47.6733 11.5424C46.9908 10.7366 46.2225 10.7093 45.4209 9.91337C44.6439 9.13427 43.7239 8.13007 42.6044 7.55097C41.9163 7.19194 40.5845 7.42484 40.147 7.40115C38.9045 7.34674 38.688 5.81137 37.6833 6.09804C36.6749 6.38655 36.9485 8.14473 35.2709 7.57968C36.0163 6.4584 36.7185 5.26132 37.4395 4.11261C36.3006 3.29796 35.154 2.53812 33.9845 1.76135C33.0973 1.17784 32.1581 0.530622 31.6286 0.0928484C31.5738 0.0490069 31.5229 0.00479726 31.5117 0.000369956C31.4993 -0.00212965 31.5185 0.0121566 31.6449 0.205127C31.683 0.264375 31.7311 0.342765 31.7864 0.446347C31.8369 0.542162 31.9162 0.694755 32.0054 0.938225C32.0824 1.27807 32.7091 2.4971 31.6717 4.46167C30.5178 6.24987 29.2962 6.32368 28.9468 6.44156C28.4811 6.52894 28.333 6.51022 28.1978 6.51139C27.8036 6.48429 28.0317 6.48597 28.1737 6.52508C28.3448 6.56213 28.5741 6.62254 28.8182 6.69358C29.2184 6.81241 28.6081 7.39389 29.0444 7.54441C29.3856 7.66149 29.7531 7.76702 30.1607 7.86407C31.1562 8.10482 32.1507 8.20446 32.9492 8.289C33.3431 8.33054 33.6845 8.37415 33.8402 8.40941C34.0035 8.4395 33.9058 8.47115 33.5268 8.27696C33.3646 8.19253 33.1717 8.06486 33.0122 7.9383C34.5133 9.85167 35.1691 11.0749 36.4029 12.3259C38.2013 11.8089 40.0124 13.9108 41.5694 14.9401C42.1254 15.3107 42.344 14.9599 42.8098 15.1512C44.5558 15.8742 43.033 16.4156 43.2927 16.8864C44.3959 18.8877 46.4287 16.5672 48.3405 18.1209C48.4474 18.2065 48.7362 20.4878 48.8409 20.6952C49.547 22.0677 49.3678 20.3783 50.1392 20.8112C51.5749 21.6214 52.66 21.9506 53.8862 23.4779C54.253 23.9331 54.6617 25.5219 55.9912 25.5324C56.1654 25.5339 56.4297 25.054 56.5388 25.0964C58.4976 25.9076 57.5017 27.2906 58.086 28.4518C58.6693 29.6121 60.8164 29.7529 61.3096 29.699C62.5996 29.5706 60.9496 28.9601 60.9604 28.8606C61.0908 27.6775 62.0282 28.6019 62.8805 29.1333C63.9992 27.8836 65.0583 28.8037 63.76 29.6895C63.6163 29.7848 63.0869 29.1927 62.8805 29.1333C62.5982 30.9713 63.7046 32.0639 65.9811 31.8565C67.0481 31.7594 66.9453 30.6355 68.6959 32.332C69.4912 33.1018 68.4617 33.7677 69.0454 34.5981C70.3759 36.4919 73.3017 37.3479 75.0356 38.8665C75.6551 39.4102 74.6371 39.4317 75.0463 39.8199C76.1009 40.829 77.5031 41.2958 78.5182 42.3684C78.6105 42.4668 77.9537 42.7964 78.312 43.0783C81.1061 45.2933 83.8073 46.8175 86.7042 49.0593C88.036 50.0894 90.4031 52.4212 91.6183 53.4001C91.7893 53.5318 92.1002 53.7852 92.2023 53.8483C92.2301 53.8656 92.2483 53.8736 92.2537 53.8674C92.2598 53.8594 92.2189 53.8164 92.0589 53.5818C91.9784 53.4591 91.8641 53.2901 91.7048 52.9592C91.6259 52.7918 91.5349 52.5815 91.4445 52.2871C91.444 52.224 90.7393 50.4386 91.8626 48.4125C92.4032 47.4242 93.3462 46.6808 94.0992 46.3501C94.8656 46.0038 95.4474 45.9379 95.865 45.9109C96.2853 45.8896 96.5653 45.9209 96.7797 45.9505C96.982 45.9788 97.1802 46.0275 97.1658 46.0255C97.3003 46.0619 97.3911 46.0944 97.4581 46.1209C97.8862 46.3776 96.8106 45.9839 96.2981 45.7867C95.0148 45.2824 93.804 44.7711 92.5493 44.0421C92.176 43.8278 91.8181 43.593 91.4912 43.3401C90.1349 42.2828 90.8294 41.941 90.4624 41.1564C89.7967 39.6658 86.8416 39.4784 86.4068 39.459C86.3964 39.4631 87.5294 40.4624 86.6803 40.2727C85.8887 40.5741 86.4182 39.4709 86.4068 39.459C86.1315 39.4603 83.6101 37.7974 83.2124 37.3351C82.9921 37.0842 83.5131 36.6937 83.3914 36.5723C80.4948 33.6987 77.416 31.0749 74.0178 28.7106C73.9534 28.6749 73.5998 29.2875 73.4536 29.1965C71.3969 27.9346 70.745 26.295 69.5523 24.6535C68.3486 23.0019 67.0411 22.1309 65.3786 22.303C64.3287 21.2267 62.3437 20.2433 61.2093 19.7002C60.0509 19.137 60.8068 17.9925 60.742 17.902C58.7295 15.0473 56.7707 14.3853 54.0322 12.1459C53.4388 11.6629 52.5492 10.8389 51.7265 10.0289C51.4837 9.79315 51.2916 9.59984 51.0968 9.40137C50.9791 9.28371 50.8799 9.18186 50.8014 9.0981C50.7479 9.03774 50.5834 8.87241 50.6034 8.87801C50.6087 8.88193 50.5906 8.86127 50.6633 8.93288C50.7032 8.97414 50.7486 9.01418 50.9115 9.20271C51.0002 9.31294 51.1057 9.41474 51.3842 9.84928C51.523 10.0951 51.7351 10.3612 52.0105 11.2662C52.1305 11.7328 52.3132 12.4076 52.1586 13.5676C52.0449 14.6895 51.1731 16.4469 49.8185 17.3135C48.4866 18.2049 47.3281 18.2764 46.6423 18.2781C45.9328 18.2645 45.5266 18.1567 45.2181 18.0751C44.6209 17.9008 44.3913 17.7703 44.1977 17.6772C43.9781 17.564 43.9 17.5142 43.8098 17.46C43.6471 17.3594 43.5734 17.3067 43.5139 17.2655C43.402 17.1866 43.3665 17.1589 43.3396 17.1396C43.2902 17.1035 43.3114 17.1229 43.3251 17.1375C43.3336 17.1476 43.3454 17.1605 43.3598 17.1756C43.4124 17.2318 43.5331 17.3471 43.6206 17.4347C43.7615 17.5805 43.9384 17.7585 44.1308 17.9503C44.1807 18.0025 44.23 18.0543 44.2785 18.1055C45.1696 19.0541 46.0286 19.4258 46.9033 20.4923C47.0233 20.6376 46.4771 20.9603 46.5037 21.0158C47.1799 22.5988 47.6127 20.9946 48.0272 21.0108C49.5575 21.0705 50.3909 21.1504 51.7674 22.7951C52.0683 23.1628 52.0153 25.7697 52.8452 26.4383C53.1023 26.6489 53.3025 26.7498 53.4663 26.7947C53.8365 26.8565 54.0244 26.5053 54.6126 27.0312C54.68 27.0911 54.4185 27.4821 54.9612 27.7971C57.5115 29.2893 60.395 30.9012 62.9673 32.7464C63.3194 32.997 62.4379 33.2945 62.9387 33.6665C65.2879 35.4115 67.9264 37.2696 70.4639 38.6806C71.0935 39.0287 71.0392 38.342 71.2558 38.3073C72.5685 38.0984 72.8533 39.9993 73.0225 40.1553C74.3432 41.3967 75.682 42.3872 77.0431 43.295C77.7477 43.7657 78.4164 44.1877 79.1702 44.6545C79.6356 44.9402 79.7864 45.0486 80.7271 45.5852C80.8147 45.6228 81.0594 45.8021 81.8408 46.1007C82.0556 46.1779 82.3231 46.2708 82.7576 46.3644C82.8143 46.3763 82.863 46.3861 82.9367 46.3997C83.1721 46.4425 83.4553 46.4836 83.8234 46.5006C84.5392 46.5122 85.7185 46.5469 87.3568 45.6363C89.0296 44.7804 90.4019 42.4685 90.5161 40.9393C90.7061 39.3746 90.4049 38.5188 90.226 37.9419C90.1266 37.6534 90.0302 37.4332 89.9427 37.2495C89.8838 37.1276 89.8906 37.1433 89.8652 37.093C89.8266 37.0177 89.7897 36.9494 89.7546 36.8865C89.6842 36.7608 89.6206 36.6562 89.5625 36.5647C89.4462 36.3825 89.3514 36.2509 89.269 36.1408C88.947 35.7182 88.7713 35.5507 88.7108 35.4855C88.6236 35.3955 88.5453 35.3183 88.4692 35.2448C88.3 35.0812 88.2162 35.0082 88.1137 34.9162C88.0132 34.8263 87.9096 34.7349 87.8003 34.6389C87.8953 34.7418 87.7441 34.6031 87.6386 34.4994C87.5146 34.3782 87.3676 34.2296 87.2289 34.0885C86.9326 33.7862 86.6251 33.4676 86.3085 33.1364C85.6797 32.4781 85.0297 31.7843 84.3712 31.0523C84.1725 30.8064 83.173 27.9805 81.4926 28.2587C81.3783 28.2729 79.727 28.5948 79.4899 27.3148C79.472 27.2332 80.4274 27.1227 79.4217 26.451C78.4267 25.788 77.0938 24.3022 75.3316 24.0176C74.7656 23.9195 73.0892 24.3557 72.3281 22.6972C72.3046 22.5921 71.4174 19.3786 69.8989 20.3638C69.6537 20.53 68.9441 22.0535 67.8035 20.4469C67.5793 20.1357 68.3143 20.1025 67.617 19.4623C66.569 18.4914 64.7234 18.0587 63.5146 16.6476C63.4872 16.6156 63.4524 16.5616 63.4095 16.4926C63.2721 16.3446 63.1016 16.1483 62.8059 15.9125C62.6545 15.7936 62.4672 15.6629 62.2122 15.5227C61.9086 15.3728 61.6636 15.2208 60.823 15.013C60.2572 14.9514 60.086 14.6448 57.7115 14.9543C57.3798 15.0173 57.0801 15.0826 56.5989 15.2426C56.0607 15.4254 55.4399 15.6967 54.7778 16.1306C53.5719 16.7497 51.5387 19.3411 51.3212 21.3057C51.1365 22.2755 51.155 23.1467 51.2491 23.8573C51.3458 24.5459 51.4538 24.9143 51.5864 25.3296C51.7144 25.719 51.8636 26.0647 51.9858 26.3174C52.0922 26.5381 52.1969 26.7308 52.2979 26.9034C53.1014 28.1956 53.4278 28.3991 53.7549 28.7444C54.057 29.0312 54.2815 29.2089 54.4898 29.3627C55.2768 29.9272 55.8075 30.1063 56.3697 30.1936C56.7569 30.2335 56.4265 29.4603 57.4804 29.8823C58.0271 30.0862 58.5702 30.2557 59.1368 30.3983C61.4607 30.8978 63.5906 31.671 65.7798 31.8529C66.6477 31.9241 66.454 30.9389 67.3697 30.9117C68.3022 30.8882 70.1043 31.0911 70.8983 31.7213C71.6984 32.3533 70.3648 33.512 71.6679 33.9642C77.2453 35.9322 83.3581 36.727 87.6271 38.7851C88.1751 39.0661 87.5394 39.2933 88.2156 39.7135C88.4633 39.8742 88.6652 40.0302 88.7824 40.1421C88.8884 40.2364 88.8944 40.314 88.6703 40.0333C88.4801 39.7958 87.9563 38.9362 87.9377 37.6767C87.9167 36.3875 88.417 35.5049 88.6104 35.2292C86.6124 38.0856 85.098 39.552 83.7647 41.2041C83.6885 41.2775 83.6151 41.3507 83.5441 41.4236C80.4074 45.0142 85.2774 41.9647 82.9591 44.3323C81.9394 45.4406 79.7614 45.2406 79.4477 45.4774C76.7559 47.4324 75.8923 49.5523 73.8821 51.5198C73.4679 51.9283 73.3163 51.0552 72.9782 51.3984C71.8179 52.5694 70.9184 54.1232 69.8757 55.3056C69.4033 55.8397 69.0699 55.4223 68.6991 55.941C67.8012 57.1877 67.088 58.428 66.5467 59.8982C66.4965 60.0333 67.5803 59.7126 66.8895 60.6228C65.7563 62.1133 64.7396 64.2009 63.0532 65.5744C62.5513 65.9809 61.5879 65.2731 61.4184 66.8523C61.3831 67.1829 62.7422 67.7631 60.8044 68.264C60.4813 68.3469 57.5475 69.4542 57.6322 71.1404C57.6528 71.5855 58.0751 72.9798 57.4729 73.4797C57.388 73.5445 57.1193 72.8313 56.6944 73.2974C55.2114 74.9397 53.8979 76.838 52.3972 78.5543C51.995 79.0126 51.9911 77.8912 51.4097 78.586C49.83 80.4685 48.1224 83.1292 46.9081 85.196C46.441 85.9873 47.2559 85.79 47.2659 85.8792C47.4423 87.3112 46.0244 87.0421 45.7659 87.2754C44.1221 88.8099 43.6933 90.5014 42.4227 92.0577C42.065 92.5012 41.7771 91.8146 41.667 91.8761C40.5678 92.5138 41.9751 92.4502 41.6788 93.103C41.2305 94.0716 40.728 94.9473 40.1006 95.9357C39.8437 96.3439 39.4602 96.9271 39.1741 97.3621C39.1111 97.4571 39.0034 97.6233 38.9075 97.7729C38.8111 97.9234 38.7197 98.0675 38.6302 98.2119C38.5841 98.2866 38.5457 98.3485 38.4922 98.4384C38.407 98.5849 38.3213 98.7355 38.2205 98.9299C38.1184 99.1324 38.0042 99.3444 37.8255 99.8229C37.803 99.8843 37.7795 99.9512 37.7549 100.025C37.7446 100.057 37.7564 100.019 37.7238 100.122C37.6847 100.248 37.6428 100.393 37.5995 100.573C37.5188 100.939 37.4005 101.409 37.4103 102.326C37.4574 103.187 37.5191 104.895 39.2343 106.818C40.9868 108.8 43.8752 109.165 45.1086 108.919C47.6999 108.407 47.892 107.82 48.3691 107.563C48.5038 107.46 48.4455 107.504 48.4738 107.482C48.4862 107.473 48.4983 107.463 48.5102 107.454C48.5339 107.435 48.5566 107.417 48.5784 107.399C48.6219 107.363 48.6619 107.33 48.6992 107.299C48.7736 107.235 48.8373 107.179 48.8944 107.128C49.2153 106.834 49.332 106.721 49.4492 106.63C49.5589 106.545 49.6332 106.508 49.6917 106.497C49.8078 106.475 49.8554 106.564 49.8977 106.658C49.94 106.751 49.9763 106.851 50.0774 106.845C50.1231 106.847 50.2098 106.794 50.2677 106.76C50.3196 106.734 50.3792 106.685 50.4492 106.607C51.1446 105.814 51.5088 105.364 52.0927 104.626C53.9983 102.224 55.9766 99.6327 57.6882 97.044C58.0846 96.4435 57.367 96.4343 57.3636 96.2378C57.332 94.8727 59.2372 94.4867 59.5466 94.2964C60.9647 93.4204 60.9774 92.6333 61.9507 91.61C66.691 86.6491 71.919 79.8527 75.8235 74.4943C80.8863 67.4258 84.5524 61.9392 88.7702 53.7517C88.8215 53.6459 88.8791 53.5955 88.9409 53.5787C89.2207 53.434 89.4707 54.0496 89.7361 53.4814C90.3815 52.037 91.0091 50.0951 90.8782 47.6742C90.7772 45.2498 89.6447 42.8437 88.5375 41.4208C86.2474 38.3488 82.9177 36.615 79.8703 35.9163C77.4533 35.3939 74.1488 34.63 69.9098 35.8679C68.9595 36.1883 70.1157 34.9958 68.5225 35.5661C68.2875 35.6579 68.0515 35.7581 67.8112 35.8696C66.5575 36.3996 65.0608 37.1454 63.87 37.9085C63.2435 38.3083 64.3928 38.4565 63.7542 38.8486C62.2638 39.7635 60.5312 40.5719 58.7692 41.2383C58.0182 41.5215 58.8274 40.3663 57.8699 40.7885C52.5802 43.0883 47.0516 45.8834 42.3151 49.7419C41.2971 50.5777 40.2379 51.4796 39.1852 52.4596C38.8185 52.8042 39.3045 54.2594 38.2876 54.671C37.9777 54.3951 37.6929 54.0104 37.4022 53.685C28.3921 60.0749 21.6563 69.1022 16.2502 78.1583C16.018 78.5452 15.7619 77.4716 15.307 78.2244C12.6921 82.5741 10.246 86.7728 8.77706 91.6811C8.63335 92.1651 9.97843 92.506 9.1714 93.7577C9.01755 93.9939 7.95447 95.9023 7.45372 96.3115C7.38127 96.3652 6.96131 95.7354 6.65537 96.385C4.90565 100.127 3.39818 104.281 2.35011 108.212C2.17679 108.861 3.06181 108.43 2.94426 108.895C2.12487 112.136 0.457294 115.356 0.0316894 118.614C-0.224547 120.724 1.13258 120.357 1.88953 121.771C1.99626 121.969 1.6224 123.227 2.2431 123.496C3.80289 124.171 5.75855 124.129 7.39826 124.921C7.75178 125.087 6.83052 126.624 8.0347 125.921C8.11621 125.869 8.79127 124.769 9.18729 124.579C9.46152 124.444 9.99633 125.016 10.3962 124.691C10.7957 124.368 10.395 123.742 10.9282 123.177C11.4677 122.608 12.0979 123.175 12.6417 121.831ZM56.0436 17.1663C54.7657 16.9247 56.2123 15.012 56.7501 16.2345C56.7749 16.2963 56.1089 17.1804 56.0436 17.1663ZM30.4634 1.63883C30.0624 1.63225 29.7963 1.49715 29.7706 1.44403C29.7624 1.44553 29.8196 1.37018 30.0214 1.77727C30.098 1.97001 30.271 2.38872 30.0598 3.10107C29.855 3.77473 29.3294 4.20504 29.103 4.36446C28.5839 4.70653 28.5263 4.75277 28.4336 4.89162C28.3666 5.01162 28.3607 5.13128 28.3967 5.25101C28.4373 5.36516 28.5191 5.50519 28.9327 5.52464C29.0438 5.52531 29.2183 5.50355 29.4324 5.43941C29.647 5.37088 29.9182 5.276 30.3145 4.97532C30.6899 4.69049 31.118 4.20544 31.3751 3.58412C31.5032 3.28514 31.5892 2.93269 31.6247 2.66993C31.6615 2.41616 31.6689 2.17427 31.6582 1.95678C31.6269 1.48985 31.5732 1.29382 31.5242 1.0922C31.4724 0.897066 31.4236 0.763452 31.397 0.680394C31.3336 0.497661 31.2904 0.401442 31.2705 0.349435C31.2212 0.236116 31.2171 0.246153 31.2078 0.278997C31.1913 0.350281 31.1677 0.551846 31.1074 0.761904C30.9874 1.18265 30.7115 1.64716 30.4634 1.63883ZM42.2787 11.352C40.3712 11.028 42.1143 8.10448 43.2309 9.72969C43.2981 9.82421 42.3908 11.3716 42.2787 11.352ZM3.82945 116.959C3.85436 116.984 3.58331 117.88 3.54632 117.892C2.66581 118.123 3.20993 116.325 3.82945 116.959ZM54.6206 20.5666C53.9324 20.6803 52.8591 19.3734 53.7484 19.2609C54.4655 19.1732 55.4948 20.4388 54.6206 20.5666ZM81.8851 37.2389C81.8418 37.2445 81.3525 36.8054 81.4965 36.6656C81.9898 36.2371 82.527 37.0325 81.8851 37.2389ZM59.4876 18.2542C60.3865 19.4214 61.4459 20.2138 62.2865 20.5692C63.2961 20.9957 63.9904 20.7604 63.5914 19.7167C63.4565 19.3687 63.2008 18.9346 62.7869 18.412C62.3057 17.8002 62.9794 20.3021 62.2192 19.6211C60.848 18.399 61.568 16.3962 59.7241 15.4836C59.3911 15.3211 59.3575 18.0877 59.4884 18.262C59.4881 18.2594 59.4878 18.2568 59.4876 18.2542ZM53.6732 18.9159C53.6476 18.9358 52.9017 18.3286 52.9119 18.2957C53.026 17.3891 54.4953 18.583 53.6732 18.9159ZM70.5078 25.0811C70.5738 25.0268 72.6703 25.4848 72.7262 25.5645C73.5062 27.0396 69.272 26.117 70.5078 25.0811ZM90.6715 43.8088C90.2742 42.5299 89.4754 41.7991 88.2101 42.0362C89.0802 42.6419 89.7728 43.1679 90.6715 43.8088Z" fill="#FCFCFC"/>
</svg>
