<svg width="80" height="80" viewBox="0 0 80 80" fill="none" xmlns="http://www.w3.org/2000/svg">
<path fill-rule="evenodd" clip-rule="evenodd" d="M48.9408 37.4327C48.4598 36.6711 47.7808 36.0551 46.9762 35.6497C46.1718 35.2447 45.2725 35.0661 44.3742 35.1327C43.3195 35.1881 42.2822 35.4251 41.3075 35.8327C41.1075 35.3327 40.9408 34.7994 40.7742 34.2661L40.1742 32.8326C41.0872 32.5931 42.0312 32.492 42.9742 32.5326C43.3055 32.5804 43.6425 32.4949 43.9112 32.2951C44.1795 32.0952 44.3582 31.7971 44.4075 31.466C44.4362 31.2974 44.4315 31.1249 44.3932 30.9582C44.3552 30.7915 44.2845 30.634 44.1855 30.4947C44.0862 30.3554 43.9608 30.2369 43.8158 30.1462C43.6708 30.0555 43.5095 29.9942 43.3408 29.966C41.9392 29.7353 40.5092 29.7353 39.1075 29.966C38.5742 28.5993 37.9742 27.1993 37.4742 25.8326C37.3952 25.5123 37.1938 25.2356 36.9138 25.0613C36.6338 24.887 36.2965 24.8289 35.9742 24.8993C35.8135 24.9346 35.6612 25.0017 35.5268 25.0967C35.3922 25.1917 35.2782 25.3126 35.1912 25.4524C35.1042 25.5922 35.0462 25.7481 35.0202 25.9107C34.9945 26.0733 35.0015 26.2394 35.0408 26.3993C35.2075 27.9326 35.5075 29.4993 35.7075 31.0326C35.0085 31.2274 34.3278 31.484 33.6742 31.7993C33.0326 32.1647 32.4706 32.6547 32.0213 33.2407C31.5719 33.8267 31.2445 34.4964 31.0581 35.2111C30.8717 35.9254 30.8302 36.6701 30.936 37.4007C31.0418 38.1314 31.2928 38.8337 31.6742 39.4661C32.053 40.2681 32.6452 40.9507 33.3862 41.4387C34.1268 41.9267 34.9878 42.2014 35.8742 42.2327C36.7275 42.2144 37.5718 42.0567 38.3742 41.7661L38.7742 42.7994C39.2408 43.8994 39.8075 44.9327 40.3075 46.1327C38.7302 46.7484 36.9895 46.8074 35.3742 46.2994C35.2058 46.2214 35.0238 46.1777 34.8385 46.1707C34.6532 46.1637 34.4682 46.1937 34.2945 46.2587C34.1208 46.3241 33.9618 46.4231 33.8268 46.5501C33.6915 46.6771 33.5832 46.8301 33.5075 46.9994C33.4245 47.1694 33.3765 47.3544 33.3668 47.5434C33.3572 47.7324 33.3858 47.9214 33.4512 48.0991C33.5165 48.2768 33.6175 48.4391 33.7475 48.5767C33.8775 48.7141 34.0338 48.8241 34.2075 48.8994C36.6218 49.8991 39.3085 50.0287 41.8075 49.2661L42.7075 51.0994C42.7772 51.2747 42.8808 51.4344 43.0125 51.5697C43.1442 51.7047 43.3015 51.8127 43.4748 51.8871C43.6482 51.9614 43.8345 52.0007 44.0232 52.0027C44.2118 52.0047 44.3992 51.9697 44.5742 51.8994C44.7582 51.8311 44.9255 51.7247 45.0655 51.5877C45.2055 51.4504 45.3155 51.2854 45.3875 51.1031C45.4598 50.9211 45.4932 50.7254 45.4852 50.5297C45.4772 50.3337 45.4278 50.1417 45.3408 49.9661L44.8408 48.0661C45.5648 47.7557 46.2568 47.3761 46.9075 46.9327C47.6865 46.4617 48.3608 45.8364 48.8892 45.0954C49.4172 44.3541 49.7878 43.5124 49.9785 42.6224C50.1688 41.7324 50.1752 40.8127 49.9968 39.9201C49.8182 39.0278 49.4588 38.1811 48.9408 37.4327ZM35.4075 37.4327C34.6075 36.2661 35.2075 35.2661 36.2075 34.5327C36.2075 34.8661 36.2075 35.1994 36.3742 35.5327C36.5408 35.8661 36.7075 36.8327 36.9075 37.4994L36.3075 37.6994C35.9742 37.7661 35.6408 37.7994 35.4075 37.4661V37.4327ZM43.8075 44.3994C43.5742 43.3994 43.3075 42.4327 43.0408 41.4661L42.7408 40.3994C43.2268 40.1934 43.7285 40.0261 44.2408 39.8994C44.5742 39.8994 44.9075 39.8994 45.1075 40.0994C46.3408 41.7327 45.3408 43.2994 43.8075 44.4327V44.3994Z" fill="#020202"/>
<path fill-rule="evenodd" clip-rule="evenodd" d="M75.778 31.6313C75.068 29.6677 74.256 27.7427 73.3443 25.8642C72.3317 23.973 71.2187 22.137 70.011 20.3639C67.252 16.2778 64.128 12.4508 60.677 8.92979C60.5647 8.80756 60.428 8.70996 60.276 8.64323C60.124 8.57646 59.9597 8.54199 59.7937 8.54199C59.6277 8.54199 59.4633 8.57646 59.3113 8.64323C59.159 8.70996 59.0227 8.80756 58.9103 8.92979C58.7053 9.10966 58.5747 9.35913 58.5433 9.62983C58.3077 9.45396 58.021 9.35899 57.7267 9.35899C57.4323 9.35899 57.146 9.45396 56.91 9.62983C53.6163 11.8344 50.1997 13.849 46.676 15.6636C44.436 16.8208 42.0467 17.6622 39.5757 18.1637C34.343 18.7697 29.0705 18.9592 23.8079 18.7304C21.3897 18.8588 18.9951 19.2728 16.6741 19.9638C14.1056 20.8375 11.6794 22.0843 9.4737 23.6641C6.32227 25.895 3.46603 28.516 0.97314 31.4646C0.858097 31.6082 0.77484 31.7745 0.728867 31.9527C0.682897 32.1308 0.675257 32.3167 0.706453 32.498C0.429093 32.629 0.210528 32.8588 0.093417 33.1423C-0.0236942 33.4259 -0.0309447 33.7429 0.0730807 34.0313C1.33983 38.2649 2.40656 42.6653 3.84 46.9989C5.02147 50.7139 6.50427 54.3259 8.2736 57.7996C10.319 61.9216 12.6819 65.8783 15.3407 69.6336C15.5015 69.8616 15.7283 70.0349 15.9905 70.1303C16.2527 70.2256 16.5378 70.2386 16.8075 70.1669C16.785 70.4636 16.8676 70.7586 17.0408 71.0006C17.2549 71.2519 17.5566 71.4126 17.8847 71.4496C18.2128 71.4869 18.5428 71.3976 18.8076 71.2006C21.9804 68.8849 25.3234 66.8123 28.8083 64.9999C32.1005 63.2216 35.6757 62.0259 39.3757 61.4666C43.0053 60.8796 46.6683 60.5233 50.343 60.3996C54.2147 60.2326 58.0633 59.7193 61.8437 58.8663C67.067 57.6793 71.871 55.0989 75.7447 51.3993C76.0287 51.1539 76.2053 50.8073 76.2363 50.4333C76.2677 50.0593 76.151 49.6879 75.9113 49.3989C75.6343 49.1436 75.2713 49.0019 74.8947 49.0019C74.5177 49.0019 74.1547 49.1436 73.8777 49.3989C70.1587 52.3673 65.7393 54.3303 61.0437 55.0993C57.4053 55.5546 53.743 55.7886 50.0763 55.7996C46.2063 55.8759 42.349 56.2659 38.5423 56.9663C35.2327 57.7286 32.0537 58.9756 29.1083 60.6666C25.1214 63.0203 21.3802 65.7676 17.9409 68.8669C17.9758 68.6686 17.9758 68.4653 17.9409 68.2669C15.8045 64.1709 13.9122 59.9523 12.2739 55.6329C11.1405 52.7993 10.0737 49.9323 8.9403 47.1323C6.9402 42.3986 4.67337 37.7983 2.60658 33.298H2.9066C5.06417 31.151 7.44443 29.2401 10.0071 27.5977C12.413 26.0324 15.0762 24.904 17.8742 24.2641C20.0659 23.8014 22.3014 23.5779 24.5413 23.5974H35.742C37.3957 23.4556 39.0347 23.1769 40.6423 22.764C43.437 22.0191 46.1173 20.8977 48.6097 19.4305C52.0777 17.1748 55.4163 14.7264 58.6103 12.0967C58.8053 11.9178 58.9443 11.6862 59.0103 11.43C61.5927 15.1936 63.9417 19.1124 66.044 23.164C67.0107 24.9308 67.944 26.6976 68.8773 28.4977C69.811 30.2978 70.7443 32.0646 71.6443 33.8979C73.7633 38.0229 75.6227 42.2759 77.2113 46.6323C77.2613 46.8139 77.347 46.9843 77.463 47.1329C77.579 47.2816 77.723 47.4059 77.8873 47.4989C78.0513 47.5919 78.2323 47.6516 78.4193 47.6743C78.6067 47.6973 78.7963 47.6829 78.978 47.6323C79.3393 47.5239 79.643 47.2779 79.824 46.9473C80.005 46.6166 80.0483 46.2279 79.945 45.8656C78.965 41.0103 77.571 36.2483 75.778 31.6313Z" fill="#020202"/>
<path fill-rule="evenodd" clip-rule="evenodd" d="M57.0454 46.8297C56.8637 46.78 56.6737 46.7677 56.4871 46.793C56.3004 46.8183 56.1207 46.881 55.9587 46.9777C55.7967 47.074 55.6561 47.2023 55.5451 47.3543C55.4341 47.5067 55.3547 47.6797 55.3121 47.863C55.2617 48.0427 55.2477 48.2303 55.2711 48.4153C55.2944 48.6003 55.3544 48.7787 55.4474 48.94C55.5407 49.1017 55.6651 49.2427 55.8134 49.3553C55.9621 49.4683 56.1314 49.55 56.3121 49.5963C58.3464 50.113 60.4774 50.113 62.5121 49.5963C65.4041 48.8923 68.1777 47.7693 70.7454 46.263C71.1971 45.85 71.5261 45.3203 71.6967 44.7323C71.8671 44.1443 71.8724 43.5206 71.7121 42.9296C70.8531 38.6147 69.3944 34.4407 67.3787 30.5298C65.9147 27.4769 64.1384 24.5837 62.0787 21.8965C61.0197 20.3583 59.5037 19.1921 57.7454 18.5632C56.8334 18.4808 55.9251 18.7557 55.2121 19.3298C52.8121 21.7991 49.8991 23.7109 46.6787 24.9298C46.5007 24.9451 46.3281 24.9978 46.1721 25.0845C46.0161 25.1712 45.8801 25.2899 45.7731 25.4328C45.6661 25.5758 45.5907 25.7397 45.5514 25.9139C45.5121 26.088 45.5104 26.2685 45.5457 26.4435C45.5811 26.6184 45.6534 26.7839 45.7571 26.9291C45.8611 27.0743 45.9944 27.1958 46.1487 27.2858C46.3027 27.3758 46.4744 27.4322 46.6517 27.4512C46.8294 27.4703 47.0087 27.4516 47.1787 27.3965C48.9227 27.0948 50.6024 26.4974 52.1454 25.6298C54.0101 24.9092 55.7881 23.9811 57.4454 22.8632L57.6121 23.0965C58.5934 24.3684 59.4527 25.73 60.1787 27.1632C61.7454 29.8632 63.5121 33.1965 64.7454 36.2296C65.6901 38.2496 66.5247 40.3197 67.2454 42.4297C67.2454 42.763 67.5121 43.1297 67.6121 43.3963C65.7594 44.6387 63.7541 45.636 61.6454 46.363C60.1761 46.905 58.5934 47.0653 57.0454 46.8297Z" fill="#020202"/>
<path fill-rule="evenodd" clip-rule="evenodd" d="M17.1725 33.099C18.9731 32.0501 20.9499 31.3385 23.0059 30.999C25.2017 30.564 27.4545 30.4965 29.6725 30.799C30.0029 30.8482 30.3396 30.7683 30.6127 30.5759C30.8858 30.3835 31.0743 30.0934 31.1392 29.7657C31.1674 29.5941 31.1599 29.4186 31.1173 29.25C31.0747 29.0814 30.9979 28.9234 30.8916 28.7858C30.7853 28.6482 30.6518 28.534 30.4994 28.4503C30.347 28.3665 30.179 28.315 30.0059 28.299C27.5591 27.7388 25.0407 27.5589 22.5392 27.7657C19.8998 27.9257 17.3123 28.5698 14.9059 29.6657C13.578 30.4476 12.3756 31.4253 11.3392 32.5657C10.4663 33.5063 9.84683 34.6533 9.53919 35.899C9.35543 36.756 9.35543 37.642 9.53919 38.499C9.72136 39.4333 9.95506 40.357 10.2392 41.2656C10.7059 42.699 11.1392 44.2323 11.6725 45.699C12.2059 47.1656 12.8059 48.6656 13.4725 50.1323L16.8059 56.799L17.6725 58.5323C17.8857 58.9083 18.2049 59.213 18.5902 59.4086C18.9755 59.6043 19.4099 59.682 19.8392 59.6323C20.7725 59.399 22.5059 57.6656 25.4392 56.299C26.4983 55.7426 27.6164 55.3066 28.7725 54.999C28.9756 54.9886 29.1741 54.935 29.3548 54.842C29.5356 54.7486 29.6944 54.6183 29.8209 54.459C29.9473 54.3 30.0385 54.1156 30.0882 53.9183C30.138 53.7213 30.1452 53.5156 30.1095 53.3156C30.0737 53.1156 29.9958 52.9253 29.8809 52.7576C29.766 52.5896 29.6167 52.4483 29.443 52.343C29.2692 52.2373 29.075 52.1696 28.8732 52.145C28.6714 52.1203 28.4667 52.1386 28.2725 52.199C26.7896 52.4273 25.3363 52.8186 23.9392 53.3656C22.6649 53.9236 21.448 54.6046 20.3059 55.399L17.5059 48.499L14.6725 40.099C14.5059 39.4656 14.2725 38.8656 14.1059 38.199C14.0399 37.8466 14.0399 37.485 14.1059 37.1323C14.2728 36.4636 14.6185 35.853 15.1059 35.3656C15.7176 34.5433 16.4099 33.784 17.1725 33.099Z" fill="#020202"/>
</svg>
