<svg width="80" height="80" viewBox="0 0 80 80" fill="none" xmlns="http://www.w3.org/2000/svg">
<path d="M44.0877 73.6615C41.6757 69.7565 38.069 66.7332 33.8027 65.0409C30.8697 63.6295 27.8033 62.5145 24.649 61.7122C20.9823 60.5015 17.159 59.8289 13.299 59.7152C11.8343 59.4822 11.9677 57.5515 13.6983 57.4185C17.5387 56.9172 21.4373 57.0975 25.215 57.9512C27.3983 58.3735 29.5377 58.9975 31.6057 59.8152C33.7037 60.6392 35.7113 61.6762 37.597 62.9105C41.7133 65.2775 44.958 68.9072 46.8503 73.2622C47.3163 74.9932 44.7867 74.8599 44.0877 73.6615Z" fill="#020202"/>
<path d="M18.4575 47.4987C25.2565 44.7733 32.4485 43.1553 39.7598 42.7057V42.5393C36.6695 36.0737 34.0335 29.4004 31.8712 22.5681C29.9525 17.2881 30.0235 11.4898 32.0708 6.2584C33.6022 3.12959 32.7368 3.12959 34.2345 1.7649C35.8315 0.46406 37.8755 -0.157509 39.9262 0.0340763C42.3085 0.22611 44.6572 0.718183 46.9162 1.49862C51.2965 3.10378 55.4743 5.21503 59.3648 7.7895C63.2866 10.1754 67.005 12.8806 70.482 15.8778C70.6857 16.0939 70.7991 16.3797 70.7991 16.6766C70.7991 16.9736 70.6857 17.2593 70.482 17.4755C70.2699 17.6869 69.9827 17.8056 69.6832 17.8056C69.3837 17.8056 69.0965 17.6869 68.8843 17.4755C65.4185 14.783 61.7457 12.3679 57.9003 10.2526C54.1543 7.99253 50.1546 6.18263 45.9842 4.86043C43.9528 4.23243 41.8505 3.86337 39.7265 3.762C38.6812 3.6691 37.6382 3.9654 36.7975 4.59413C36.5978 4.59413 36.7975 5.02683 36.7975 5.25983C36.9308 5.68307 37.1212 6.0862 37.3632 6.4581C37.8792 7.21577 38.4582 7.92837 39.0942 8.58837C42.5162 11.1782 46.2515 13.3255 50.2114 14.9791C58.4994 18.9733 68.0189 22.9675 68.4516 23.0674C69.122 23.2144 69.7998 23.3255 70.482 23.4002H71.647C71.9133 23.4002 71.647 22.6347 71.3807 21.8026C71.3252 21.6825 71.294 21.5526 71.289 21.4204C71.2841 21.2882 71.3055 21.1563 71.3519 21.0324C71.3984 20.9086 71.469 20.7951 71.5596 20.6988C71.6503 20.6024 71.7592 20.5251 71.88 20.4711C72.0001 20.4156 72.13 20.3844 72.2622 20.3795C72.3944 20.3745 72.5263 20.3959 72.6501 20.4423C72.774 20.4888 72.8874 20.5594 72.9838 20.6501C73.0801 20.7407 73.1575 20.8496 73.2114 20.9704C73.6576 21.823 73.8906 22.7709 73.8906 23.7331C73.8906 24.6953 73.6576 25.6432 73.2114 26.4958C70.9923 31.1776 67.4063 35.077 62.9263 37.6797C57.0472 41.2287 50.6272 43.792 43.9205 45.2687C47.6855 51.9493 50.4764 59.134 52.2085 66.6043C53.2403 71.7637 52.7743 76.2237 50.511 78.3873C49.6743 79.0227 48.7195 79.485 47.7024 79.748C46.6852 80.011 45.6258 80.0687 44.5862 79.9183C38.0785 78.993 31.7625 77.0263 25.8798 74.0937C19.9298 71.4873 14.3368 68.1317 9.2375 64.108C6.84083 61.9443 5.90883 59.8473 6.14182 58.516C6.87416 54.4553 11.5342 50.3943 18.4575 47.4987ZM61.5283 35.5493C65.6795 33.2598 69.0523 29.7827 71.2143 25.5638C70.197 25.6816 69.1694 25.6816 68.1521 25.5638C60.4623 23.0454 52.9269 20.0779 45.5848 16.6766C42.2435 15.304 39.1248 13.4419 36.3315 11.1513C35.3532 10.1595 34.5132 9.03983 33.8352 7.8228C32.6182 11.1396 32.4208 14.7447 33.2692 18.1745C35.3748 26.0969 38.3672 33.7563 42.1898 41.008C42.4228 41.5407 42.6225 42.0067 42.7555 42.406C49.3494 41.175 55.6932 38.858 61.5283 35.5493ZM12.3995 61.7113C18.3635 66.1107 24.8758 69.7137 31.7715 72.4293C35.6855 74.1173 39.7862 75.335 43.9872 76.0573C45.3092 76.4067 46.7123 76.277 47.948 75.6913C49.0131 75.092 49.113 73.461 49.1795 71.7967C49.1551 69.142 48.7859 66.5013 48.0811 63.9417C46.5192 57.9297 44.2862 52.1127 41.4242 46.6L40.9248 45.7013C33.7102 46.2153 26.6275 47.9017 19.9552 50.694C16.0482 51.9727 12.6685 54.4983 10.3358 57.8837C9.9695 58.1833 9.70349 59.5147 12.3995 61.7113Z" fill="#020202"/>
</svg>
